<svg width="161" height="35" viewBox="0 0 161 35" fill="none" xmlns="http://www.w3.org/2000/svg">
<path d="M14.8262 7.22319L12.4201 6.70163C10.3994 6.26362 8.33703 7.24072 7.39605 9.08177L1.65005 20.324L8.90168 18.4776" fill="#D82E3D"/>
<path d="M27.7232 20.4224L28.2448 22.8285C28.6828 24.8491 27.7057 26.9115 25.8646 27.8525L14.6224 33.5985L16.4687 26.3469" fill="#DD636E"/>
<path d="M27.8748 20.2713C24.5659 23.5802 20.5424 25.5841 16.6198 26.1961L8.90167 18.4779C9.51307 14.5546 11.5176 10.5318 14.8265 7.22293C16.8257 5.22377 19.0864 3.70101 21.4275 2.67383C25.4299 0.916525 29.67 0.608732 33.2477 1.84887C34.4884 5.42717 34.1813 9.66781 32.4239 13.6703C31.3967 16.0114 29.874 18.2721 27.8748 20.2713Z" fill="#DFEAEF"/>
<path d="M18.8943 11.2906C15.5854 14.5995 12.9514 17.993 11.3075 20.8838L8.90164 18.4779C9.51304 14.5546 11.5176 10.5317 14.8265 7.22279C16.8256 5.22363 19.0864 3.70087 21.4275 2.6737C25.4298 0.916389 29.6699 0.608596 33.2476 1.8488C31.1722 2.11097 28.1579 3.64456 24.8551 6.10146C22.9237 7.53835 20.8933 9.29154 18.8943 11.2906Z" fill="#B4D0D5"/>
<path d="M32.4239 13.6703L21.4275 2.67383C25.43 0.916525 29.67 0.608732 33.2477 1.84887C34.4884 5.42717 34.1813 9.66781 32.4239 13.6703Z" fill="#DD636E"/>
<path d="M21.4275 2.67383L24.8551 6.10139C28.1579 3.64456 31.1721 2.11104 33.2474 1.84873C29.6698 0.608729 25.4298 0.916522 21.4275 2.67383Z" fill="#D82E3D"/>
<path d="M0.373535 34.5294C3.42178 34.5294 8.51049 31.985 8.51049 31.985V34.9029C12.1579 32.9577 15.6836 27.973 11.3068 23.5962C6.93002 19.2194 1.94524 22.7451 0 26.3924H2.91789C2.91789 26.3924 0.373535 31.4811 0.373535 34.5294Z" fill="#F6E266"/>
<path d="M11.3063 23.596C9.33061 21.6196 4.45108 27.9256 4.45108 27.9256C4.45108 27.9256 1.20939 32.3172 0.373203 34.5291C0.373203 31.481 2.91782 26.3924 2.91782 26.3924H0C1.94471 22.7451 6.92949 19.2192 11.3063 23.596Z" fill="#ECC32E"/>
<path d="M20.8595 20.3222C24.1508 20.3222 26.819 17.654 26.819 14.3626C26.819 11.0712 24.1508 8.40305 20.8595 8.40305C17.5681 8.40305 14.8999 11.0712 14.8999 14.3626C14.8999 17.654 17.5681 20.3222 20.8595 20.3222Z" fill="#DD636E"/>
<path d="M20.8594 18.0531C22.8975 18.0531 24.5497 16.4008 24.5497 14.3627C24.5497 12.3246 22.8975 10.6724 20.8594 10.6724C18.8213 10.6724 17.1691 12.3246 17.1691 14.3627C17.1691 16.4008 18.8213 18.0531 20.8594 18.0531Z" fill="#B1E4F9"/>
<path d="M21.8716 11.7533C21.3556 11.2373 20.724 10.9054 20.0608 10.7588C21.2503 10.4968 22.5436 10.828 23.4689 11.7533C24.9102 13.1945 24.9102 15.5309 23.4689 16.9722C22.5437 17.8974 21.2503 18.2286 20.0608 17.9666C20.724 17.8201 21.3556 17.4881 21.8716 16.9722C23.3128 15.5309 23.3128 13.1945 21.8716 11.7533Z" fill="#E4F6FF"/>
<path d="M11.7768 26.495C12.8671 24.3458 10.6007 22.0794 8.45152 23.1697C8.03974 23.3786 7.65345 23.6552 7.3092 23.9995C6.04144 25.2672 5.69155 27.105 6.25892 28.6877C7.84165 29.2551 9.67937 28.9051 10.9471 27.6374C11.2913 27.2931 11.5679 26.9068 11.7768 26.495Z" fill="#D82E3D"/>
<path d="M47.7598 18.4932C45.3477 17.7998 43.5898 16.9502 42.4863 15.9443C41.3926 14.9287 40.8457 13.6787 40.8457 12.1943C40.8457 10.5146 41.5146 9.12793 42.8525 8.03418C44.2002 6.93066 45.9482 6.37891 48.0967 6.37891C49.5615 6.37891 50.8652 6.66211 52.0078 7.22852C53.1602 7.79492 54.0488 8.57617 54.6738 9.57227C55.3086 10.5684 55.626 11.6572 55.626 12.8389H52.7988C52.7988 11.5498 52.3887 10.5391 51.5684 9.80664C50.748 9.06445 49.5908 8.69336 48.0967 8.69336C46.71 8.69336 45.626 9.00098 44.8447 9.61621C44.0732 10.2217 43.6875 11.0664 43.6875 12.1504C43.6875 13.0195 44.0537 13.7568 44.7861 14.3623C45.5283 14.958 46.7832 15.5049 48.5508 16.0029C50.3281 16.501 51.7148 17.0527 52.7109 17.6582C53.7168 18.2539 54.459 18.9521 54.9375 19.7529C55.4258 20.5537 55.6699 21.4961 55.6699 22.5801C55.6699 24.3086 54.9961 25.6953 53.6484 26.7402C52.3008 27.7754 50.499 28.293 48.2432 28.293C46.7783 28.293 45.4111 28.0146 44.1416 27.458C42.8721 26.8916 41.8906 26.1201 41.1973 25.1436C40.5137 24.167 40.1719 23.0586 40.1719 21.8184H42.999C42.999 23.1074 43.4727 24.1279 44.4199 24.8799C45.377 25.6221 46.6514 25.9932 48.2432 25.9932C49.7275 25.9932 50.8652 25.6904 51.6562 25.085C52.4473 24.4795 52.8428 23.6543 52.8428 22.6094C52.8428 21.5645 52.4766 20.7588 51.7441 20.1924C51.0117 19.6162 49.6836 19.0498 47.7598 18.4932ZM61.4121 12.1504L61.4854 13.9082C62.6475 12.541 64.2148 11.8574 66.1875 11.8574C68.4043 11.8574 69.9131 12.707 70.7139 14.4062C71.2412 13.6445 71.9248 13.0293 72.7646 12.5605C73.6143 12.0918 74.6152 11.8574 75.7676 11.8574C79.2441 11.8574 81.0117 13.6982 81.0703 17.3799V28H78.3604V17.541C78.3604 16.4082 78.1016 15.5635 77.584 15.0068C77.0664 14.4404 76.1973 14.1572 74.9766 14.1572C73.9707 14.1572 73.1357 14.46 72.4717 15.0654C71.8076 15.6611 71.4219 16.4668 71.3145 17.4824V28H68.5898V17.6143C68.5898 15.3096 67.4619 14.1572 65.2061 14.1572C63.4287 14.1572 62.2129 14.9141 61.5586 16.4277V28H58.8486V12.1504H61.4121ZM94.957 28C94.8008 27.6875 94.6738 27.1309 94.5762 26.3301C93.3164 27.6387 91.8125 28.293 90.0645 28.293C88.502 28.293 87.2178 27.8535 86.2119 26.9746C85.2158 26.0859 84.7178 24.9629 84.7178 23.6055C84.7178 21.9551 85.3428 20.6758 86.5928 19.7676C87.8525 18.8496 89.6201 18.3906 91.8955 18.3906H94.5322V17.1455C94.5322 16.1982 94.249 15.4463 93.6826 14.8896C93.1162 14.3232 92.2812 14.04 91.1777 14.04C90.2109 14.04 89.4004 14.2842 88.7461 14.7725C88.0918 15.2607 87.7646 15.8516 87.7646 16.5449H85.04C85.04 15.7539 85.3184 14.9922 85.875 14.2598C86.4414 13.5176 87.2031 12.9316 88.1602 12.502C89.127 12.0723 90.1865 11.8574 91.3389 11.8574C93.165 11.8574 94.5957 12.3164 95.6309 13.2344C96.666 14.1426 97.2031 15.3975 97.2422 16.999V24.2939C97.2422 25.749 97.4277 26.9062 97.7988 27.7656V28H94.957ZM90.46 25.9346C91.3096 25.9346 92.1152 25.7148 92.877 25.2754C93.6387 24.8359 94.1904 24.2646 94.5322 23.5615V20.3096H92.4082C89.0879 20.3096 87.4277 21.2812 87.4277 23.2246C87.4277 24.0742 87.7109 24.7383 88.2773 25.2168C88.8438 25.6953 89.5713 25.9346 90.46 25.9346ZM109.151 14.582C108.741 14.5137 108.297 14.4795 107.818 14.4795C106.041 14.4795 104.835 15.2363 104.2 16.75V28H101.49V12.1504H104.127L104.171 13.9814C105.06 12.5654 106.319 11.8574 107.95 11.8574C108.478 11.8574 108.878 11.9258 109.151 12.0625V14.582ZM116.065 8.3125V12.1504H119.024V14.2451H116.065V24.0742C116.065 24.709 116.197 25.1875 116.461 25.5098C116.725 25.8223 117.174 25.9785 117.809 25.9785C118.121 25.9785 118.551 25.9199 119.098 25.8027V28C118.385 28.1953 117.691 28.293 117.018 28.293C115.807 28.293 114.894 27.9268 114.278 27.1943C113.663 26.4619 113.355 25.4219 113.355 24.0742V14.2451H110.47V12.1504H113.355V8.3125H116.065ZM127.843 20.0459H120.694V17.834H127.843V20.0459ZM142.975 18.1416H133.731V25.7002H144.469V28H130.919V6.67188H144.322V8.98633H133.731V15.8418H142.975V18.1416ZM152.862 17.9365L156.378 12.1504H159.542L154.356 19.9873L159.703 28H156.568L152.906 22.0674L149.244 28H146.095L151.441 19.9873L146.256 12.1504H149.391L152.862 17.9365Z" fill="black"/>
</svg>
