<svg width="34" height="34" viewBox="0 0 34 34" fill="none" xmlns="http://www.w3.org/2000/svg">
<path d="M14.8262 6.22319L12.4201 5.70163C10.3994 5.26362 8.33703 6.24072 7.39605 8.08177L1.65005 19.324L8.90168 17.4776" fill="#D82E3D"/>
<path d="M27.7232 19.4224L28.2448 21.8285C28.6828 23.8491 27.7057 25.9115 25.8646 26.8525L14.6224 32.5985L16.4687 25.3469" fill="#DD636E"/>
<path d="M27.8748 19.2713C24.5659 22.5802 20.5424 24.5841 16.6198 25.1961L8.90167 17.4779C9.51307 13.5546 11.5176 9.53175 14.8265 6.22293C16.8257 4.22377 19.0864 2.70101 21.4275 1.67383C25.4299 -0.083475 29.67 -0.391268 33.2477 0.848869C34.4884 4.42717 34.1813 8.66781 32.4239 12.6703C31.3967 15.0114 29.874 17.2721 27.8748 19.2713V19.2713Z" fill="#DFEAEF"/>
<path d="M18.8943 10.2906C15.5854 13.5995 12.9514 16.993 11.3075 19.8838L8.90164 17.4779C9.51304 13.5546 11.5176 9.53168 14.8265 6.22279C16.8256 4.22363 19.0864 2.70087 21.4275 1.6737C25.4298 -0.0836109 29.6699 -0.391404 33.2476 0.848799C31.1722 1.11097 28.1579 2.64456 24.8551 5.10146C22.9237 6.53835 20.8933 8.29154 18.8943 10.2906V10.2906Z" fill="#B4D0D5"/>
<path d="M32.4239 12.6703L21.4275 1.67383C25.43 -0.083475 29.67 -0.391268 33.2477 0.848869C34.4884 4.42717 34.1813 8.66781 32.4239 12.6703Z" fill="#DD636E"/>
<path d="M21.4275 1.67383L24.8551 5.10139C28.1579 2.64456 31.1721 1.11104 33.2474 0.848733C29.6698 -0.391271 25.4298 -0.0834777 21.4275 1.67383V1.67383Z" fill="#D82E3D"/>
<path d="M0.373535 33.5294C3.42178 33.5294 8.51049 30.985 8.51049 30.985V33.9029C12.1579 31.9577 15.6836 26.973 11.3068 22.5962C6.93002 18.2194 1.94524 21.7451 0 25.3924H2.91789C2.91789 25.3924 0.373535 30.4811 0.373535 33.5294V33.5294Z" fill="#F6E266"/>
<path d="M11.3063 22.596C9.33061 20.6196 4.45108 26.9256 4.45108 26.9256C4.45108 26.9256 1.20939 31.3172 0.373203 33.5291C0.373203 30.481 2.91782 25.3924 2.91782 25.3924H0C1.94471 21.7451 6.92949 18.2192 11.3063 22.596Z" fill="#ECC32E"/>
<path d="M20.8595 19.3222C24.1508 19.3222 26.819 16.654 26.819 13.3626C26.819 10.0712 24.1508 7.40305 20.8595 7.40305C17.5681 7.40305 14.8999 10.0712 14.8999 13.3626C14.8999 16.654 17.5681 19.3222 20.8595 19.3222Z" fill="#DD636E"/>
<path d="M20.8594 17.0531C22.8975 17.0531 24.5497 15.4008 24.5497 13.3627C24.5497 11.3246 22.8975 9.67239 20.8594 9.67239C18.8213 9.67239 17.1691 11.3246 17.1691 13.3627C17.1691 15.4008 18.8213 17.0531 20.8594 17.0531Z" fill="#B1E4F9"/>
<path d="M21.8716 10.7533C21.3556 10.2373 20.724 9.90535 20.0608 9.75879C21.2503 9.49675 22.5436 9.82799 23.4689 10.7533C24.9102 12.1945 24.9102 14.5309 23.4689 15.9722C22.5437 16.8974 21.2503 17.2286 20.0608 16.9666C20.724 16.8201 21.3556 16.4881 21.8716 15.9722C23.3128 14.5309 23.3128 12.1945 21.8716 10.7533Z" fill="#E4F6FF"/>
<path d="M11.7768 25.495C12.8671 23.3458 10.6007 21.0794 8.45152 22.1697C8.03974 22.3786 7.65345 22.6552 7.3092 22.9995C6.04144 24.2672 5.69155 26.105 6.25892 27.6877C7.84165 28.2551 9.67937 27.9051 10.9471 26.6374C11.2913 26.2931 11.5679 25.9068 11.7768 25.495V25.495Z" fill="#D82E3D"/>
</svg>
