<svg id="icons" enable-background="new 0 0 64 64" height="512" viewBox="0 0 64 64" width="512" xmlns="http://www.w3.org/2000/svg"><g><g><path d="m40.518 18.5c.549 0 1 .449 1 1v2.01c0 .549-.451 1-1 1h-30c-.551 0-1-.451-1-1v-2.01c0-.551.449-1 1-1z" fill="#f6bb42"/></g><g><path d="m21.518 4.02v-1.98c1.27-.35 2.609-.529 3.99-.529 1.391 0 2.73.189 4.01.539v1.98c6.34 1.76 10.99 7.57 10.99 14.461v.01h-30v-.01c0-6.911 4.66-12.721 11.01-14.471z" fill="#edab37"/></g><g><path d="m54.488 43.5v18.99h-5.98v-8c0-.191-.01-.371-.02-.551v-16.439c0 3.309 2.69 6 6 6z" fill="#e6e9ed"/></g><g><path d="m25.508 45.49 3 1.66-2 2.34h-2l-2-2.34v-.011z" fill="#ed5565"/></g><g><path d="m25.508 45.49-3 1.648-2.451 1.352-1.549-4v-3.73c2.09 1.1 4.471 1.73 7 1.73s4.91-.631 7-1.73v3.73l-1.561 4-2.439-1.34z" fill="#f5f7fa"/></g><g><path d="m47.488 53.939v8.551h-18.98l6-8-2-2 4-4-2-2h5c4.23 0 7.699 3.289 7.98 7.449z" fill="#545c66"/></g><g><path d="m39.508 46.49h-4.004c4.23 0 7.699 3.289 7.98 7.449v8.551h4.004v-8.551c-.281-4.16-3.75-7.449-7.98-7.449z" fill="#434a54"/></g><g><path d="m30.947 48.49-2.33 6-2.109-5 2-2.34z" fill="#e6e9ed"/></g><g><path d="m54.988 34.5c.83 0 1.51.67 1.51 1.5s-.68 1.5-1.51 1.5h-.49v3h-.01c-1.65 0-3-1.35-3-3 0-1.66 1.35-3 3-3z" fill="#ccd1d9"/></g><g><path d="m22.387 54.48 3.121 8.01h-3l-6-8 2-2-4-4 2-2 2-2 1.549 4z" fill="#656d78"/></g><g><path d="m22.508 47.15 2 2.34-2.121 4.99-2.33-5.99 2.451-1.351z" fill="#e6e9ed"/></g><g><path d="m40.508 22.51v4.98c0 5.76-3.24 10.76-8 13.27-2.09 1.1-4.471 1.73-7 1.73s-4.91-.631-7-1.73c-4.76-2.51-8-7.51-8-13.27l.01-4.98z" fill="#eac6bb"/></g><g><path d="m36.504 22.51v4.98c0 5.76-3.24 10.76-8 13.27-1.529.805-3.215 1.354-4.998 1.594.654.088 1.322.137 2.002.137 2.529 0 4.91-.631 7-1.73 4.76-2.51 8-7.51 8-13.27v-4.98h-4.004z" fill="#d3b1a9"/></g><g><path d="m34.508 46.49 2 2-4 4 2 2-6 8h-3l3.109-8 2.33-6 1.561-4z" fill="#656d78"/></g><g><path d="m56.498 36c0-.83-.68-1.5-1.51-1.5h-.5c-1.65 0-3 1.34-3 3 0 1.65 1.35 3 3 3h.01v-3h.49c.83 0 1.51-.67 1.51-1.5zm2.99 0v26.49h-5v-18.99c-3.311 0-6-2.691-6-6 0-3.32 2.689-6 6-6h.5c2.491 0 4.5 2.01 4.5 4.5z" fill="#ccd1d9"/></g><g><path d="m26.508 49.49 2.109 5-3.109 8-3.121-8.01 2.121-4.99z" fill="#da4453"/></g><g><path d="m16.508 54.49 6 8h-19v-8c0-4.42 3.57-8 8-8h5l-2 2 4 4z" fill="#545c66"/></g><g><path d="m21.518 7.51h8v-5.461c-1.279-.35-2.619-.539-4.01-.539-1.381 0-2.721.18-3.99.529z" fill="#f6bb42"/></g><g><path d="m59.492 34.998c-.553 0-1 .447-1 1v26.492h2v-26.492c0-.553-.447-1-1-1z" fill="#ccd1d9"/><g><path d="m54.492 44.498c-3.859 0-7-3.141-7-7s3.141-7 7-7c.553 0 1 .447 1 1s-.447 1-1 1c-2.756 0-5 2.242-5 5 0 2.756 2.244 5 5 5 .553 0 1 .447 1 1s-.447 1-1 1z" fill="#e6e9ed"/></g><g><path d="m54.992 41.498c-.553 0-1-.447-1-1s.447-1 1-1c1.93 0 3.5-1.57 3.5-3.5s-1.57-3.5-3.5-3.5c-.553 0-1-.447-1-1s.447-1 1-1c3.033 0 5.5 2.467 5.5 5.5 0 3.031-2.467 5.5-5.5 5.5z" fill="#e6e9ed"/></g><g><path d="m54.992 38.502c-.553 0-1-.447-1-1s.447-1 1-1c.277 0 .502-.227.502-.502 0-.277-.225-.502-.502-.502-.553 0-1-.447-1-1s.447-1 1-1c1.381 0 2.502 1.121 2.502 2.502 0 1.379-1.121 2.502-2.502 2.502z" fill="#e6e9ed"/></g><g><path d="m54.492 41.498c-2.205 0-4-1.795-4-4 0-2.207 1.795-4 4-4 .553 0 1 .447 1 1s-.447 1-1 1c-1.102 0-2 .896-2 2 0 1.102.898 2 2 2 .553 0 1 .447 1 1s-.447 1-1 1z" fill="#e6e9ed"/></g><path d="m54.492 42.498c-.553 0-1 .447-1 1v18.992h2v-18.992c0-.553-.447-1-1-1z" fill="#e6e9ed"/><path d="m48.492 36.498c-.553 0-1 .447-1 1v24.992h2v-24.992c0-.553-.447-1-1-1z" fill="#e6e9ed"/><g><path d="m54.992 38.502h-.498c-.553 0-1-.447-1-1s.447-1 1-1h.498c.553 0 1 .447 1 1s-.447 1-1 1z" fill="#e6e9ed"/></g><g><path d="m54.992 41.498h-.5c-.553 0-1-.447-1-1s.447-1 1-1h.5c.553 0 1 .447 1 1s-.447 1-1 1z" fill="#e6e9ed"/></g><g><path d="m54.992 35.498h-.5c-.553 0-1-.447-1-1s.447-1 1-1h.5c.553 0 1 .447 1 1s-.447 1-1 1z" fill="#e6e9ed"/></g><g><path d="m54.992 32.498h-.5c-.553 0-1-.447-1-1s.447-1 1-1h.5c.553 0 1 .447 1 1s-.447 1-1 1z" fill="#e6e9ed"/></g></g></g></svg>