<svg id="Capa_1" enable-background="new 0 0 512 512" height="512" viewBox="0 0 512 512" width="512" xmlns="http://www.w3.org/2000/svg"><g><g><path d="m7.889 1.793c-4.859 2.616-7.889 7.689-7.889 13.207v332c0 5.518 3.03 10.591 7.889 13.207 4.845 2.61 10.749 2.361 15.368-.684l87.243-57.523h291l87.243 57.523c4.611 3.041 10.516 3.297 15.368.684 4.859-2.616 7.889-7.689 7.889-13.207v-332c0-5.518-3.03-10.591-7.889-13.207-4.856-2.616-10.761-2.353-15.368.684l-87.243 57.523h-291l-87.243-57.523c-4.607-3.038-10.511-3.3-15.368-.684zm383.111 270.207h-270v-182h270zm91 47.143-61-40.22v-195.846l61-40.22zm-452-276.286 61 40.22v195.846l-61 40.22z"/></g><g><path d="m181 377c0-24.813-20.187-45-45-45s-45 20.187-45 45 20.187 45 45 45 45-20.187 45-45zm-45 15c-8.271 0-15-6.729-15-15s6.729-15 15-15 15 6.729 15 15-6.729 15-15 15z"/></g><g><path d="m61 497c0 8.284 6.716 15 15 15h360c8.284 0 15-6.716 15-15 0-41.355-33.645-75-75-75-24.508 0-46.306 11.818-60 30.052-13.694-18.234-35.492-30.052-60-30.052s-46.306 11.818-60 30.052c-13.694-18.234-35.492-30.052-60-30.052-41.355 0-75 33.645-75 75zm315-45c19.557 0 36.239 12.539 42.43 30h-84.86c6.191-17.461 22.873-30 42.43-30zm-120 0c19.557 0 36.239 12.539 42.43 30h-84.86c6.191-17.461 22.873-30 42.43-30zm-120 0c19.557 0 36.239 12.539 42.43 30h-84.86c6.191-17.461 22.873-30 42.43-30z"/></g><g><path d="m301 377c0-24.813-20.187-45-45-45s-45 20.187-45 45 20.187 45 45 45 45-20.187 45-45zm-45 15c-8.271 0-15-6.729-15-15s6.729-15 15-15 15 6.729 15 15-6.729 15-15 15z"/></g><g><path d="m421 377c0-24.813-20.187-45-45-45s-45 20.187-45 45 20.187 45 45 45 45-20.187 45-45zm-45 15c-8.271 0-15-6.729-15-15s6.729-15 15-15 15 6.729 15 15-6.729 15-15 15z"/></g></g></svg>