<svg id="Flat" height="512" viewBox="0 0 512 512" width="512" xmlns="http://www.w3.org/2000/svg"><path d="m24 440v-390a10 10 0 0 1 10-10h444a10 10 0 0 1 10 10v390z" fill="#ebf9ff"/><rect fill="#fcfeff" height="88" rx="10" width="88" x="344" y="152"/><rect fill="#fcfeff" height="88" rx="10" width="88" x="344" y="288"/><path d="m24 104v-54a10 10 0 0 1 10-10h444a10 10 0 0 1 10 10v54z" fill="#25b1fa"/><path d="m468 472h-424a20 20 0 0 1 -20-20v-28h152l16 16h128l16-16h152v28a20 20 0 0 1 -20 20z" fill="#25b1fa"/><g><g fill="#fcfeff"><path d="m448 64h16v16h-16z"/><path d="m112 64h16v16h-16z"/><path d="m48 64h16v16h-16z"/><path d="m80 64h16v16h-16z"/></g><path d="m392 352a7.974 7.974 0 0 1 -5.657-2.343l-24-24 11.314-11.314 18.343 18.344 50.343-50.344 11.314 11.314-56 56a7.974 7.974 0 0 1 -5.657 2.343z" fill="#25b1fa"/><path d="m392 216a7.974 7.974 0 0 1 -5.657-2.343l-24-24 11.314-11.314 18.343 18.344 50.343-50.344 11.314 11.314-56 56a7.974 7.974 0 0 1 -5.657 2.343z" fill="#25b1fa"/><path d="m112 344h192l-96-192z" fill="#f15a57"/><circle cx="132" cy="324" fill="#fdc069" r="68"/></g></svg>