<?xml version="1.0" encoding="iso-8859-1"?>
<!-- Generator: Adobe Illustrator 19.0.0, SVG Export Plug-In . SVG Version: 6.00 Build 0)  -->
<svg version="1.1" id="Capa_1" xmlns="http://www.w3.org/2000/svg" xmlns:xlink="http://www.w3.org/1999/xlink" x="0px" y="0px"
	 viewBox="0 0 512 512" style="enable-background:new 0 0 512 512;" xml:space="preserve">
<g>
	<g>
		<g>
			<path d="M245.25,452.267H59.733V85.333H128V102.4c0,4.713,3.821,8.533,8.533,8.533h136.533c4.713,0,8.533-3.821,8.533-8.533
				V85.333h68.267v187.733c0,4.713,3.821,8.533,8.533,8.533s8.533-3.821,8.533-8.533V76.8c0-4.713-3.821-8.533-8.533-8.533h-76.8
				V51.2c0-4.713-3.821-8.533-8.533-8.533h-25.6C247.467,19.142,228.325,0,204.8,0c-23.525,0-42.667,19.142-42.667,42.667h-25.6
				c-4.713,0-8.533,3.821-8.533,8.533v17.067H51.2c-4.713,0-8.533,3.821-8.533,8.533v384c0,4.713,3.821,8.533,8.533,8.533h194.05
				c4.713,0,8.533-3.821,8.533-8.533C253.783,456.087,249.963,452.267,245.25,452.267z M204.8,17.067
				c14.117,0,25.6,11.483,25.6,25.6h-51.2C179.2,28.55,190.683,17.067,204.8,17.067z M145.067,59.733h119.467v34.133H145.067V59.733
				z"/>
			<path d="M358.4,290.133c-61.171,0-110.933,49.762-110.933,110.933S297.229,512,358.4,512s110.933-49.762,110.933-110.933
				S419.571,290.133,358.4,290.133z M358.4,494.933c-51.758,0-93.867-42.108-93.867-93.867c0-51.758,42.108-93.867,93.867-93.867
				s93.867,42.108,93.867,93.867C452.267,452.825,410.158,494.933,358.4,494.933z"/>
			<path d="M102.4,349.867c-4.713,0-8.533,3.821-8.533,8.533s3.821,8.533,8.533,8.533h126.804c4.713,0,8.533-3.821,8.533-8.533
				s-3.821-8.533-8.533-8.533H102.4z"/>
			<path d="M273.15,298.667c0-4.713-3.821-8.533-8.533-8.533H102.4c-4.713,0-8.533,3.821-8.533,8.533s3.821,8.533,8.533,8.533
				h162.217C269.329,307.2,273.15,303.379,273.15,298.667z"/>
			<path d="M315.733,238.933c0-4.713-3.821-8.533-8.533-8.533H102.4c-4.713,0-8.533,3.821-8.533,8.533s3.821,8.533,8.533,8.533
				h204.8C311.913,247.467,315.733,243.646,315.733,238.933z"/>
			<path d="M307.2,170.667H102.4c-4.713,0-8.533,3.821-8.533,8.533s3.821,8.533,8.533,8.533h204.8c4.713,0,8.533-3.821,8.533-8.533
				S311.913,170.667,307.2,170.667z"/>
			<path d="M424.167,360.9c-3.333-3.333-8.733-3.333-12.067,0l-70.767,70.767L304.7,395.033c-3.333-3.333-8.733-3.333-12.067,0
				c-3.333,3.333-3.333,8.733,0,12.067l42.667,42.667c1.667,1.667,3.85,2.5,6.033,2.5s4.367-0.833,6.033-2.5l76.8-76.8
				C427.5,369.633,427.5,364.233,424.167,360.9z"/>
		</g>
	</g>
</g>
<g>
</g>
<g>
</g>
<g>
</g>
<g>
</g>
<g>
</g>
<g>
</g>
<g>
</g>
<g>
</g>
<g>
</g>
<g>
</g>
<g>
</g>
<g>
</g>
<g>
</g>
<g>
</g>
<g>
</g>
</svg>
