<svg id="Layer_1_1_" enable-background="new 0 0 64 64" height="512" viewBox="0 0 64 64" width="512" xmlns="http://www.w3.org/2000/svg"><path d="m55.982 31-9.956.065c-2.733.018-4.937 1.798-5.026 4.582v18.353h20v-19.013c0-2.215-2.253-4.005-5.018-3.987z" fill="#e8e8e8"/><path d="m51.87 31h-1.74l-2.13 5.97 3 8.03 3-8.03z" fill="#2e6893"/><path d="m37 42h16v20h-16z" fill="#b3e9ff"/><path d="m37 62h16v-16c0 8.837-7.163 16-16 16z" fill="#99e1ff"/><path d="m34 2v3h-13v4h22z" fill="#ef476f"/><path d="m29 20v-3h13v-4h-22z" fill="#ef476f"/><path d="m17.982 31-9.956.065c-2.733.018-4.937 1.798-5.026 4.582v18.353h20v-19.013c0-2.215-2.253-4.005-5.018-3.987z" fill="#e8e8e8"/><path d="m23 48h6v6h-6z" fill="#ffed80"/><path d="m20 42h6v6h-6z" fill="#ffed80"/><path d="m17 48h6v6h-6z" fill="#ffed80"/><path d="m33 58h-20l-1-4h21z" fill="#6d6d6d"/><circle cx="17" cy="60" fill="#3f3f3f" r="2"/><circle cx="29" cy="60" fill="#3f3f3f" r="2"/><path d="m13.87 31h-1.74l-2.13 5.97 3 8.03 3-8.03z" fill="#2e6893"/><circle cx="51" cy="24" fill="#ffcd94" r="7"/><circle cx="13" cy="24" fill="#ffcd94" r="7"/><path d="m50.835 17c-3.35 0-6.147 2.355-6.835 5.499.733.322 1.531.501 2.37.501 1.75 0 3.339-.768 4.464-2 1.125 1.232 2.714 2 4.464 2 .839 0 1.637-.179 2.37-.501-.686-3.144-3.483-5.499-6.833-5.499z" fill="#3f3f3f"/><path d="m13.165 17c-3.35 0-6.147 2.355-6.835 5.499.734.322 1.532.501 2.371.501 1.75 0 3.339-.768 4.464-2 1.125 1.232 2.714 2 4.464 2 .839 0 1.637-.179 2.37-.501-.687-3.144-3.483-5.499-6.834-5.499z" fill="#3f3f3f"/><g fill="#383737"><path d="m56.194 30.073c1.714-1.469 2.806-3.644 2.806-6.073 0-4.411-3.589-8-8-8s-8 3.589-8 8c0 2.396 1.064 4.544 2.739 6.012-1.688.06-3.259.693-4.346 1.772-.898.893-1.393 2.03-1.393 3.203v6.013h-3c-.552 0-1 .448-1 1v20c0 .552.448 1 1 1h16c.552 0 1-.448 1-1v-7h7c.552 0 1-.448 1-1v-18.948c0-2.687-2.592-4.893-5.806-4.979zm-3.258 6.889-1.509 4.038h-.853l-1.509-4.038 1.759-4.931.353.002zm-1.936-18.962c2.556 0 4.738 1.61 5.601 3.866-.369.087-.748.134-1.137.134-1.417 0-2.74-.595-3.726-1.674-.379-.415-1.099-.415-1.478 0-.984 1.079-2.307 1.674-3.724 1.674-.389 0-.768-.047-1.137-.134.863-2.256 3.045-3.866 5.601-3.866zm-6 6c0-.066.008-.13.01-.195 2.061.446 4.32-.051 5.99-1.428 1.262 1.04 2.842 1.623 4.464 1.623.521 0 1.031-.056 1.527-.168.002.056.009.111.009.168 0 3.309-2.691 6-6 6s-6-2.691-6-6zm-3 10.987c0-.815.437-1.42.803-1.784.771-.765 1.934-1.203 3.196-1.203h.036l2.67.017-1.647 4.617c-.079.222-.078.465.005.686l1.376 3.68h-6.439zm10 26.013h-14v-18h14zm8-8h-6v-11c0-.365-.205-.67-.497-.845l1.433-3.835c.083-.221.084-.464.005-.686l-1.636-4.587 2.729.018c2.187.015 3.966 1.355 3.966 2.987z"/><path d="m3 55h6.062v-2h-5.062v-17.321c.067-2.112 1.726-3.598 4.033-3.613l2.662-.018-1.636 4.586c-.079.222-.078.465.005.686l3 8.03c.145.391.519.65.936.65s.791-.259.937-.65l3-8.03c.083-.221.084-.464.005-.686l-1.647-4.617 2.693-.017c1.314-.019 2.434.427 3.207 1.196.367.365.805.972.805 1.791v6.013h-2c-.552 0-1 .448-1 1v5h-2c-.552 0-1 .448-1 1v5h-3.219l-1.811-7.243c-.111-.445-.511-.757-.97-.757h-4v2h3.219l2.811 11.243c.111.445.511.757.97.757h1.184c-.112.314-.184.648-.184 1 0 1.654 1.346 3 3 3s3-1.346 3-3c0-.352-.072-.686-.184-1h6.369c-.113.314-.185.648-.185 1 0 1.654 1.346 3 3 3s3-1.346 3-3c0-.352-.072-.686-.184-1h1.184c.552 0 1-.448 1-1v-4c0-.552-.448-1-1-1h-3v-5c0-.552-.448-1-1-1h-2v-5c0-.552-.448-1-1-1h-2v-6.013c0-1.176-.496-2.315-1.396-3.21-1.087-1.08-2.658-1.711-4.343-1.766 1.675-1.468 2.739-3.615 2.739-6.011 0-4.411-3.589-8-8-8s-8 3.589-8 8c0 2.431 1.093 4.607 2.81 6.076-3.279.116-5.71 2.414-5.81 5.571v18.353c0 .552.448 1 1 1zm15-6h2 2v4h-4zm0 11c0 .551-.449 1-1 1s-1-.449-1-1 .449-1 1-1 1 .449 1 1zm12 0c0 .551-.449 1-1 1s-1-.449-1-1 .449-1 1-1 1 .449 1 1zm2-3h-18.219l-.5-2h3.719 6 6 3zm-4-4h-4v-4h2 2zm-3-6h-2-2v-4h4zm-10.064-10.038-1.936 5.181-1.936-5.18 1.758-4.928.354-.002zm-1.936-18.962c2.556 0 4.738 1.61 5.601 3.866-.369.087-.748.134-1.137.134-1.417 0-2.74-.595-3.726-1.674-.379-.415-1.099-.415-1.478 0-.984 1.079-2.307 1.674-3.724 1.674-.389 0-.768-.047-1.137-.134.863-2.256 3.045-3.866 5.601-3.866zm-6 6c0-.066.008-.13.01-.195 2.061.446 4.321-.051 5.99-1.428 1.262 1.04 2.842 1.623 4.464 1.623.521 0 1.031-.056 1.527-.168.002.056.009.111.009.168 0 3.309-2.691 6-6 6s-6-2.691-6-6z"/><path d="m40 46h2v2h-2z"/><path d="m44 46h6v2h-6z"/><path d="m40 51h2v2h-2z"/><path d="m44 51h6v2h-6z"/><path d="m40 56h2v2h-2z"/><path d="m44 56h6v2h-6z"/><path d="m21 10h22c.427 0 .807-.271.946-.675s.005-.852-.332-1.114l-9-7c-.301-.234-.71-.276-1.053-.109-.343.168-.561.516-.561.898v2h-12c-.552 0-1 .448-1 1v4c0 .552.448 1 1 1zm1-4h12c.552 0 1-.448 1-1v-.956l5.085 3.956h-18.085z"/><path d="m28.386 20.79c.179.139.396.21.614.21.149 0 .3-.034.439-.102.343-.168.561-.516.561-.898v-2h12c.552 0 1-.448 1-1v-4c0-.552-.448-1-1-1h-22c-.427 0-.807.271-.946.675s-.005.852.332 1.114zm12.614-6.79v2h-12c-.552 0-1 .448-1 1v.956l-5.085-3.956z"/></g></svg>