<svg id="Layer_1_1_" enable-background="new 0 0 64 64" height="512" viewBox="0 0 64 64" width="512" xmlns="http://www.w3.org/2000/svg"><path d="m56.982 31-9.956.065c-2.733.018-4.937 1.798-5.026 4.582v18.353h20v-19.013c0-2.215-2.253-4.005-5.018-3.987z" fill="#2e6893"/><path d="m52.87 31h-1.74l-2.13 5.97 3 8.03 3-8.03z" fill="#e8e8e8"/><circle cx="52" cy="24" fill="#ffcd94" r="7"/><path d="m52 17c-3.431 0-6.296 2.355-7 5.499.751.322 1.568.501 2.428.501 1.792 0 3.42-.768 4.572-2 1.152 1.232 2.78 2 4.572 2 .86 0 1.677-.179 2.428-.501-.704-3.144-3.569-5.499-7-5.499z" fill="#3f3f3f"/><path d="m37 42h16v20h-16z" fill="#b3e9ff"/><path d="m37 62h16v-16c0 8.837-7.163 16-16 16z" fill="#99e1ff"/><path d="m34 2v3h-13v4h22z" fill="#ef476f"/><path d="m29 18v-3h13v-4h-22z" fill="#ef476f"/><path d="m16.982 31-9.956.065c-2.733.018-4.937 1.798-5.026 4.582v18.353h20v-19.013c0-2.215-2.253-4.005-5.018-3.987z" fill="#2e6893"/><path d="m23 48h6v6h-6z" fill="#e6d573"/><path d="m20 42h6v6h-6z" fill="#ffed80"/><path d="m17 48h6v6h-6z" fill="#ccbd66"/><circle cx="16" cy="60" fill="#3f3f3f" r="2"/><circle cx="29" cy="60" fill="#3f3f3f" r="2"/><path d="m12.87 31h-1.74l-2.13 5.97 3 8.03 3-8.03z" fill="#e8e8e8"/><circle cx="12" cy="24" fill="#ffcd94" r="7"/><path d="m12 17c-3.431 0-6.296 2.355-7 5.499.751.322 1.568.501 2.428.501 1.792 0 3.42-.768 4.572-2 1.152 1.232 2.78 2 4.572 2 .86 0 1.677-.179 2.428-.501-.704-3.144-3.569-5.499-7-5.499z" fill="#3f3f3f"/><path d="m32.82 53h-20.039l-1.81-7.242c-.112-.446-.512-.758-.971-.758h-4v2h3.219l2.811 11.243c.111.445.511.757.97.757h19.153c.489 0 .906-.353.986-.836l.667-4c.102-.609-.369-1.164-.986-1.164z" fill="#4d4d4d"/><g fill="#204866"><path d="m40 46h2v2h-2z"/><path d="m44 46h6v2h-6z"/><path d="m40 51h2v2h-2z"/><path d="m44 51h6v2h-6z"/><path d="m40 56h2v2h-2z"/><path d="m44 56h6v2h-6z"/></g></svg>