<svg height="512" viewBox="0 0 60 60" width="512" xmlns="http://www.w3.org/2000/svg"><g id="030---Business-Dashboard" fill="none"><path id="Path" d="m59 4v35l-1 1h-56l-1-1v-35c0-1.65685425 1.34314575-3 3-3h52c1.6568542 0 3 1.34314575 3 3z" fill="#4896e9"/><path id="Rectangle" d="m19 46h22v6h-22z" fill="#bec2cc"/><path id="Path" d="m48 55-7-4h-22l-7 4 1 2 34.345-.148z" fill="#d0d3da"/><path id="Path" d="m59 39v5c0 1.6568542-1.3431458 3-3 3h-52c-1.65685425 0-3-1.3431458-3-3v-5z" fill="#d0d3da"/><circle id="Oval" cx="49" cy="11" fill="#ffd05e" r="6"/><path id="Path" d="m12 55h36v3c0 .5522847-.4477153 1-1 1h-34c-.5522847 0-1-.4477153-1-1z" fill="#bec2cc"/><path id="Path" d="m55 11h-6v-6c3.3137085 0 6 2.6862915 6 6z" fill="#f35f6e"/><g fill="#373737"><path id="Shape" d="m49 18c3.8659932 0 7-3.1340068 7-7 0-3.86599325-3.1340068-7-7-7s-7 3.13400675-7 7c.0049584 3.8639376 3.1360624 6.9950416 7 7zm4.9-8h-3.9v-3.9c1.9621984.40448795 3.495512 1.93780159 3.9 3.9zm-5.9-3.9v4.9c0 .5522847.4477153 1 1 1h4.9c-.5011364 2.4517813-2.7376742 4.155486-5.2344975 3.98743-2.4968232-.1680561-4.4848764-2.1561093-4.6529325-4.6529325-.168056-2.49682328 1.5356487-4.73336111 3.98743-5.2344975z"/><path id="Shape" d="m56 0h-52c-2.209139 0-4 1.790861-4 4v30c0 .5522847.44771525 1 1 1s1-.4477153 1-1v-12h18v16h-19c-.55228475 0-1 .4477153-1 1v5c0 2.209139 1.790861 4 4 4h14v2.42l-6.5 3.712c-.0464913.0316924-.0903048.0671445-.131.106-.0348794.0246745-.0682708.0513877-.1.08-.0756293.0795415-.1374762.171129-.183.271 0 .009-.011.015-.015.024-.0455298.1132767-.0699322.2339332-.072.356 0 .011-.006.02-.006.031v3c0 1.1045695.8954305 2 2 2h34.007c1.1045695 0 2-.8954305 2-2v-3c0-.011-.006-.02-.006-.031-.0020678-.1220668-.0264702-.2427233-.072-.356 0-.009-.012-.016-.016-.025-.045186-.0995193-.1067016-.1907787-.182-.27-.0317292-.0286123-.0651206-.0553255-.1-.08-.0406952-.0388555-.0845087-.0743076-.131-.106l-6.493-3.712v-2.42h14c2.209139 0 4-1.790861 4-4v-40c0-2.209139-1.790861-4-4-4zm-34 2h16v18h-16zm18 20h18v16h-18zm18-18v16h-18v-18h16c1.1045695 0 2 .8954305 2 2zm-56 0c0-1.1045695.8954305-2 2-2h16v18h-18zm20 18h16v16h-16zm-9 36v-2h34v2zm2.766-4 3.5-2h21.468l3.5 2zm24.234-4h-20v-2h20zm18-6c0 1.1045695-.8954305 2-2 2h-52c-1.1045695 0-2-.8954305-2-2v-4h56z"/><path id="Path" d="m32 42h-4c-.5522847 0-1 .4477153-1 1s.4477153 1 1 1h4c.5522847 0 1-.4477153 1-1s-.4477153-1-1-1z"/><path id="Path" d="m17 15h-1v-4c0-.5522847-.4477153-1-1-1s-1 .4477153-1 1v4h-2v-9c0-.55228475-.4477153-1-1-1s-1 .44771525-1 1v9h-2v-4c0-.5522847-.44771525-1-1-1s-1 .4477153-1 1v4h-1c-.55228475 0-1 .4477153-1 1s.44771525 1 1 1h12c.5522847 0 1-.4477153 1-1s-.4477153-1-1-1z"/><path id="Path" d="m35 34v-4c0-.5522847-.4477153-1-1-1s-1 .4477153-1 1v4h-2v-5c0-.5522847-.4477153-1-1-1s-1 .4477153-1 1v5h-2v-9c0-.5522847-.4477153-1-1-1s-1 .4477153-1 1v9c-.5522847 0-1 .4477153-1 1s.4477153 1 1 1h10c.5522847 0 1-.4477153 1-1s-.4477153-1-1-1z"/><path id="Path" d="m34 10h-7v-2h6c.5522847 0 1-.44771525 1-1s-.4477153-1-1-1h-6v-1c0-.55228475-.4477153-1-1-1s-1 .44771525-1 1v12c0 .5522847.4477153 1 1 1s1-.4477153 1-1v-1h3c.5522847 0 1-.4477153 1-1s-.4477153-1-1-1h-3v-2h7c.5522847 0 1-.4477153 1-1s-.4477153-1-1-1z"/><path id="Path" d="m54 25h-7c0-.5522847-.4477153-1-1-1s-1 .4477153-1 1v10c0 .5522847.4477153 1 1 1s1-.4477153 1-1h6c.5522847 0 1-.4477153 1-1s-.4477153-1-1-1h-6v-2h3c.5522847 0 1-.4477153 1-1s-.4477153-1-1-1h-3v-2h7c.5522847 0 1-.4477153 1-1s-.4477153-1-1-1z"/><path id="Path" d="m5.832 35.555 3.216-4.825 2.152 2.87c.1888544.2518058.4852427.4.8.4h.012c.3181384-.0044459.6151746-.1600186.8-.419l5-7c.2243173-.2897275.2722155-.6789359.1248386-1.0144062-.1473768-.3354704-.4664249-.5634741-.8315454-.5942533-.3651204-.0307792-.7178357.1405955-.9192932.4466595l-4.206 5.888-2.18-2.907c-.19971591-.2531298-.50457045-.4005806-.827-.4-.32467781.0088004-.62485688.1747379-.805.445l-4 6c-.30651804.4595009-.18250091 1.080482.277 1.387s1.08048196.1825009 1.387-.277z"/></g></g></svg>