<svg width="37" height="37" viewBox="0 0 37 37" fill="none" xmlns="http://www.w3.org/2000/svg">
<circle cx="18.5" cy="18.5" r="17.5" fill="white" fill-opacity="0.7" stroke="#3C3C3C" stroke-width="2"/>
<path d="M18.7636 17.8047C20.193 17.8047 21.4306 17.292 22.4422 16.2805C23.4533 15.2692 23.9662 14.0317 23.9662 12.6021C23.9662 11.173 23.4535 9.93543 22.442 8.92376C21.4305 7.91258 20.1929 7.3999 18.7636 7.3999C17.334 7.3999 16.0966 7.91258 15.0852 8.92392C14.0739 9.93527 13.561 11.1729 13.561 12.6021C13.561 14.0317 14.0739 15.2693 15.0852 16.2807C16.0969 17.2919 17.3345 17.8047 18.7636 17.8047ZM15.9804 9.81892C16.7564 9.0429 17.6667 8.66569 18.7636 8.66569C19.8603 8.66569 20.7708 9.0429 21.547 9.81892C22.323 10.5951 22.7004 11.5056 22.7004 12.6021C22.7004 13.699 22.323 14.6093 21.547 15.3855C20.7708 16.1617 19.8603 16.5389 18.7636 16.5389C17.6671 16.5389 16.7567 16.1615 15.9804 15.3855C15.2042 14.6095 14.8268 13.699 14.8268 12.6021C14.8268 11.5056 15.2042 10.5951 15.9804 9.81892Z" fill="black"/>
<path d="M27.867 24.0092C27.8378 23.5883 27.7788 23.1292 27.6919 22.6443C27.6043 22.1559 27.4914 21.6941 27.3563 21.2721C27.2165 20.8359 27.0268 20.4051 26.792 19.9923C26.5486 19.5638 26.2625 19.1907 25.9415 18.8837C25.6058 18.5625 25.1948 18.3043 24.7195 18.116C24.2459 17.9286 23.721 17.8337 23.1596 17.8337C22.9391 17.8337 22.7258 17.9241 22.314 18.1923C22.0606 18.3575 21.7641 18.5487 21.4332 18.7601C21.1502 18.9404 20.7669 19.1093 20.2935 19.2623C19.8316 19.4117 19.3625 19.4875 18.8995 19.4875C18.4367 19.4875 17.9677 19.4117 17.5055 19.2623C17.0325 19.1095 16.649 18.9406 16.3666 18.7603C16.0388 18.5508 15.7422 18.3597 15.4849 18.1921C15.0734 17.924 14.8602 17.8335 14.6397 17.8335C14.0781 17.8335 13.5534 17.9286 13.0799 18.1161C12.605 18.3041 12.1938 18.5624 11.8578 18.8839C11.5368 19.1911 11.2507 19.564 11.0075 19.9923C10.7729 20.4051 10.5831 20.8357 10.4434 21.2723C10.3084 21.6943 10.1955 22.1559 10.1078 22.6443C10.0208 23.1285 9.96199 23.5878 9.93282 24.0097C9.90415 24.4221 9.88965 24.8514 9.88965 25.2852C9.88965 26.4127 10.2481 27.3255 10.9549 27.9987C11.653 28.663 12.5765 28.9998 13.6999 28.9998H24.1004C25.2235 28.9998 26.147 28.663 26.8452 27.9987C27.5522 27.326 27.9106 26.4129 27.9106 25.285C27.9105 24.8498 27.8958 24.4205 27.867 24.0092ZM25.9725 27.0816C25.5112 27.5206 24.8988 27.734 24.1002 27.734H13.6999C12.9011 27.734 12.2887 27.5206 11.8276 27.0818C11.3753 26.6512 11.1554 26.0633 11.1554 25.2852C11.1554 24.8804 11.1688 24.4808 11.1955 24.0972C11.2215 23.7208 11.2747 23.3073 11.3537 22.868C11.4316 22.4341 11.5308 22.0269 11.6488 21.6582C11.762 21.3047 11.9165 20.9547 12.108 20.6175C12.2907 20.2962 12.501 20.0205 12.733 19.7983C12.9501 19.5905 13.2236 19.4205 13.546 19.2929C13.8441 19.1749 14.1791 19.1103 14.5428 19.1006C14.5871 19.1242 14.6661 19.1692 14.7939 19.2525C15.0542 19.4221 15.3541 19.6156 15.6856 19.8273C16.0594 20.0656 16.5409 20.2809 17.1162 20.4666C17.7044 20.6568 18.3042 20.7533 18.8996 20.7533C19.495 20.7533 20.0951 20.6568 20.6829 20.4667C21.2587 20.2807 21.74 20.0656 22.1143 19.827C22.4536 19.6101 22.7451 19.4223 23.0053 19.2525C23.1332 19.1693 23.2122 19.1242 23.2565 19.1006C23.6204 19.1103 23.9554 19.1749 24.2537 19.2929C24.5758 19.4205 24.8494 19.5907 25.0664 19.7983C25.2985 20.0203 25.5087 20.296 25.6915 20.6177C25.8832 20.9547 26.0377 21.3049 26.1508 21.658C26.2689 22.0272 26.3683 22.4342 26.4461 22.8678C26.5249 23.308 26.5783 23.7216 26.6043 24.0973V24.0977C26.6312 24.4798 26.6447 24.8793 26.6448 25.2852C26.6447 26.0635 26.4248 26.6512 25.9725 27.0816Z" fill="black"/>
</svg>
