<?xml version="1.0"?>
<svg xmlns="http://www.w3.org/2000/svg" xmlns:xlink="http://www.w3.org/1999/xlink" xmlns:svgjs="http://svgjs.com/svgjs" version="1.1" width="512" height="512" x="0" y="0" viewBox="0 0 464 464" style="enable-background:new 0 0 512 512" xml:space="preserve" class=""><g><path xmlns="http://www.w3.org/2000/svg" d="m192 304h-128c-22.054688 0-40 17.945312-40 40v24h152v16h-136c-8.824219 0-16 7.175781-16 16s7.175781 16 16 16h24v16h-40c0 17.648438 14.351562 32 32 32h144c17.648438 0 32-14.351562 32-32h-152v-16h136c8.824219 0 16-7.175781 16-16s-7.175781-16-16-16h-24v-16h40v-24c0-22.054688-17.945312-40-40-40zm-96 32h-16v-16h16zm40 16h-16v-16h16zm40-16h-16v-16h16zm0 0" fill="#ffffff" data-original="#000000" style="" class=""/><path xmlns="http://www.w3.org/2000/svg" d="m128 256c70.574219 0 128-57.425781 128-128s-57.425781-128-128-128-128 57.425781-128 128 57.425781 128 128 128zm0-240c61.761719 0 112 50.238281 112 112 0 26.65625-9.59375 52.511719-27.007812 72.824219l-12.144532-10.425781c13.175782-15.359376 21.105469-34.429688 22.792969-54.398438h-31.640625v-16h31.59375c-3.867188-46.550781-41.042969-83.726562-87.59375-87.59375v31.59375h-16v-31.640625c-19.96875 1.6875-39.039062 9.609375-54.398438 22.792969l-10.425781-12.144532c20.3125-17.414062 46.167969-27.007812 72.824219-27.007812zm24 104v16h-32v-48h16v32zm-108.992188-64.824219 12.144532 10.425781c-13.175782 15.359376-21.105469 34.429688-22.792969 54.398438h31.640625v16h-31.59375c3.867188 46.550781 41.042969 83.726562 87.59375 87.59375v-31.59375h16v31.640625c19.96875-1.6875 39.039062-9.609375 54.398438-22.792969l10.425781 12.144532c-20.3125 17.414062-46.167969 27.007812-72.824219 27.007812-61.761719 0-112-50.238281-112-112 0-26.65625 9.59375-52.511719 27.007812-72.824219zm0 0" fill="#ffffff" data-original="#000000" style="" class=""/><path xmlns="http://www.w3.org/2000/svg" d="m360 376c26.472656 0 48-21.527344 48-48s-21.527344-48-48-48-48 21.527344-48 48 21.527344 48 48 48zm-32-72h64v16h-64zm0 32h64v16h-64zm0 0" fill="#ffffff" data-original="#000000" style="" class=""/><path xmlns="http://www.w3.org/2000/svg" d="m369.640625 192 21-112h65.359375v-16h-78.640625l-24 128h-96.558594c-.273437.550781-.519531 1.121094-.800781 1.664062v14.335938h208v-16zm0 0" fill="#ffffff" data-original="#000000" style="" class=""/><path xmlns="http://www.w3.org/2000/svg" d="m285.015625 424h106.984375v16h-105.984375l1.03125 16.496094c.257813 4.214844 3.769531 7.503906 7.984375 7.503906h129.9375c4.214844 0 7.726562-3.289062 7.984375-7.496094l1.03125-16.503906h-25.984375v-16h26.984375l12.496094-200h-174.96875zm74.984375-160c35.289062 0 64 28.710938 64 64s-28.710938 64-64 64-64-28.710938-64-64 28.710938-64 64-64zm0 0" fill="#ffffff" data-original="#000000" style="" class=""/></g></svg>
