<?xml version="1.0" encoding="iso-8859-1"?>
<!-- Generator: Adobe Illustrator 19.0.0, SVG Export Plug-In . SVG Version: 6.00 Build 0)  -->
<svg version="1.1" id="Capa_1" xmlns="http://www.w3.org/2000/svg" xmlns:xlink="http://www.w3.org/1999/xlink" x="0px" y="0px"
	 viewBox="0 0 484.267 484.267" style="enable-background:new 0 0 484.267 484.267;" xml:space="preserve">
<g>
	<g>
		<path d="M377.173,0H220.8c-1.675,0.68-3.145,1.782-4.267,3.2l-150.4,149.333c-1.279,1.376-2.163,3.071-2.56,4.907v1.28
			c-0.026,0.426-0.026,0.854,0,1.28l-0.64,280.107c0.117,24.34,19.82,44.043,44.16,44.16h270.08
			c24.34-0.117,44.043-19.82,44.16-44.16V44.16C421.333,19.771,401.562,0,377.173,0z M156.8,92.8l56.747-56.32v90.88
			c-0.117,12.641-10.398,22.827-23.04,22.827H99.413L156.8,92.8z M400,44.16v395.947c-0.116,12.559-10.268,22.711-22.827,22.827
			H107.307c-12.642,0-22.923-10.185-23.04-22.827V171.52h106.667c24.34-0.117,44.043-19.82,44.16-44.16V20.693h142.293
			c12.606,0.113,22.734,10.424,22.621,23.03C400.007,43.869,400.004,44.014,400,44.16z"/>
	</g>
</g>
<g>
	<g>
		<path d="M163.627,220.8h-21.333c-5.891,0-10.667,4.776-10.667,10.667V252.8c0,5.891,4.776,10.667,10.667,10.667h21.333
			c5.891,0,10.667-4.776,10.667-10.667v-21.333C174.293,225.576,169.518,220.8,163.627,220.8z"/>
	</g>
</g>
<g>
	<g>
		<rect x="195.2" y="231.253" width="157.44" height="21.333"/>
	</g>
</g>
<g>
	<g>
		<path d="M163.627,299.52h-21.333c-5.891,0-10.667,4.776-10.667,10.667v21.76c0,5.891,4.776,10.667,10.667,10.667h21.333
			c5.891,0,10.667-4.776,10.667-10.667v-21.76C174.293,304.296,169.518,299.52,163.627,299.52z"/>
	</g>
</g>
<g>
	<g>
		<rect x="195.2" y="310.4" width="157.44" height="21.333"/>
	</g>
</g>
<g>
	<g>
		<path d="M163.627,378.667h-21.333c-5.891,0-10.667,4.776-10.667,10.667v21.333c0,5.891,4.776,10.667,10.667,10.667h21.333
			c5.891,0,10.667-4.776,10.667-10.667v-21.333C174.293,383.442,169.518,378.667,163.627,378.667z"/>
	</g>
</g>
<g>
	<g>
		<rect x="195.2" y="389.12" width="157.44" height="21.333"/>
	</g>
</g>
<g>
</g>
<g>
</g>
<g>
</g>
<g>
</g>
<g>
</g>
<g>
</g>
<g>
</g>
<g>
</g>
<g>
</g>
<g>
</g>
<g>
</g>
<g>
</g>
<g>
</g>
<g>
</g>
<g>
</g>
</svg>
