<svg id="Layer_1_1_" enable-background="new 0 0 64 64" height="512" viewBox="0 0 64 64" width="512" xmlns="http://www.w3.org/2000/svg"><path d="m46.291 40c-1.41-1.24-3.26-2-5.3-2h-19.982c-4.68 0-8.371 4-7.981 8.66l.12 1.44c.12 1.42.7 2.7 1.59 3.71l5.092 2.19h.423c1.721 0 3.371-.68 4.589-1.89l1.57-1.56c1.218-1.21 2.868-1.88 4.589-1.88s3.371.67 4.589 1.88l1.57 1.56c1.218 1.21 2.868 1.89 4.589 1.89h.755c.896 0 1.751-.18 2.526-.52l3.333-3.43c.27-.61.43-1.26.49-1.95l.12-1.44c.219-2.63-.861-5.05-2.682-6.66z" fill="#26547c"/><path d="m46.291 40c-.024-.021-.051-.039-.075-.06.501 1.257.784 2.624.784 4.06 0 4.375-2.56 8.142-6.259 9.914.332.052.667.086 1.007.086h.755c.896 0 1.751-.18 2.526-.52l3.333-3.43c.27-.61.43-1.26.49-1.95l.12-1.44c.22-2.63-.86-5.05-2.681-6.66z" fill="#204769"/><path d="m44.51 49c-.834 0-1.51-.672-1.51-1.5 0-.828.676-1.5 1.51-1.5.834 0 1.51.672 1.51 1.5-.001.828-.677 1.5-1.51 1.5z" fill="#e8e8e8"/><path d="m60.918 54.509-1.216-6.647c-.273-1.493-1.208-2.783-2.543-3.506l-8.959-4.856h-2.2l.274.486c.006.005.012.009.018.014 1.33 1.176 2.257 2.787 2.579 4.593l.5.887c.539.42 1.089.92 1.629 1.52.97 1.09 1.6 2.16 2 3l.15.601c.293 1.172-1.028 2.078-2.016 1.383l-1.251-.88c-.906-.72-1.583-1.685-1.95-2.779-.317-.944-1.316-1.521-2.343-1.263-1.084.272-1.665 1.466-1.342 2.536l1.612 5.34c.403 1.333 1.26 2.485 2.426 3.257l1.216 2.805v2l7.755-.706 2.898-4.113c.723-1.078.997-2.395.763-3.672z" fill="#ffcd94"/><path d="m25 45h-3v-3h-2v3h-3v2h3v3h2v-3h3z" fill="#e8e8e8"/><path d="m19.639 47c-1.235.037-1.599 1.183-2.143 2.105-.912 1.546-2.313 2.798-3.951 3.531-.634.284-1.432.473-1.98.045-.419-.326-.538-.898-.629-1.421-.182-1.042-.357-2.151.05-3.128.422-1.014 1.405-1.709 1.843-2.716.071-.164.16-.326.244-.489.288-2.147 1.442-4.036 3.106-5.298.049-.14.108-.28.145-.421-.676-.115-1.434.289-2.032.612l-7.45 4.04c-1.33.72-2.27 2-2.54 3.49l-1.22 6.66c-.23 1.28.04 2.59.77 3.67l2.888 5.32h9.55v-2l1.22-2.81c1.16-.77 2.02-1.92 2.43-3.25l.28-.94 1.36-4.51c.38-1.26-.6-2.53-1.941-2.49z" fill="#ffcd94"/><path d="m42.164 45c-.834 0-1.51-.672-1.51-1.5 0-.828.676-1.5 1.51-1.5.834 0 1.51.672 1.51 1.5-.001.828-.676 1.5-1.51 1.5z" fill="#e8e8e8"/><path d="m39.942 49c-.834 0-1.51-.672-1.51-1.5 0-.828.676-1.5 1.51-1.5.834 0 1.51.672 1.51 1.5 0 .828-.676 1.5-1.51 1.5z" fill="#e8e8e8"/><path d="m60.155 58.181c.723-1.078.997-2.395.763-3.671l-1.216-6.647c-.173-.945-.613-1.808-1.25-2.498.118.997.202 2.015.202 3.071 0 5.932-2.314 12.021-5.594 14.335l4.197-.477z" fill="#edbf89"/><circle cx="11" cy="11" fill="#ef476f" r="9"/><path d="m11 7 1.236 2.633 2.764.423-2 2.05.472 2.894-2.472-1.367-2.472 1.367.472-2.894-2-2.05 2.764-.423z" fill="#e8e8e8"/><circle cx="53" cy="11" fill="#26547c" r="9"/><circle cx="32" cy="15" fill="#ffdc73" r="9"/><g fill="#a3a3a3"><path d="m31 27h2v5h-2z"/><path d="m35 26h2v5h-2z"/><path d="m27 26h2v5h-2z"/><path d="m31 34h2v2h-2z"/></g><path d="m32 14c-.551 0-1-.449-1-1s.449-1 1-1 1 .449 1 1h2c0-1.302-.839-2.402-2-2.816v-1.184h-2v1.184c-1.161.414-2 1.514-2 2.816 0 1.654 1.346 3 3 3 .551 0 1 .449 1 1s-.449 1-1 1-1-.449-1-1h-2c0 1.302.839 2.402 2 2.816v1.184h2v-1.184c1.161-.414 2-1.514 2-2.816 0-1.654-1.346-3-3-3z" fill="#ffac3e"/><path d="m49 8v5h2.667l.889 3 1.777-3h2.667v-5z" fill="#99e1ff"/><path d="m19.639 47c-1.235.037-1.599 1.183-2.143 2.105-.022.038-.053.071-.076.108.366.476.934.787 1.58.787 1.105 0 2-.895 2-2 0-.206-.04-.401-.098-.588-.343-.265-.778-.426-1.263-.412z" fill="#fcbbbb"/><path d="m48.422 49.378c-.192-.336-.363-.684-.488-1.054-.255-.761-.957-1.275-1.757-1.314-.41.026-.78.17-1.079.401-.058.188-.098.383-.098.589 0 1.105.895 2 2 2 .564 0 1.059-.246 1.422-.622z" fill="#fcbbbb"/></svg>