<svg id="Layer_1" enable-background="new 0 0 48 48" height="512" viewBox="0 0 48 48" width="512" xmlns="http://www.w3.org/2000/svg"><g><path d="m12 37c-2.76 0-5 2.24-5 5v2c0 .55.45 1 1 1h8c.55 0 1-.45 1-1v-2c0-2.76-2.24-5-5-5zm3 6h-6v-1c0-1.65 1.35-3 3-3s3 1.35 3 3z"/><path d="m24 37c-2.76 0-5 2.24-5 5v2c0 .55.45 1 1 1h8c.55 0 1-.45 1-1v-2c0-2.76-2.24-5-5-5zm3 6h-6v-1c0-1.65 1.35-3 3-3s3 1.35 3 3z"/><path d="m36 37c-2.76 0-5 2.24-5 5v2c0 .55.45 1 1 1h8c.55 0 1-.45 1-1v-2c0-2.76-2.24-5-5-5zm3 6h-6v-1c0-1.65 1.35-3 3-3s3 1.35 3 3z"/><path d="m12 28c-2.76 0-5 2.24-5 5v2c0 .55.45 1 1 1h8c.55 0 1-.45 1-1v-2c0-2.76-2.24-5-5-5zm3 6h-6v-1c0-1.65 1.35-3 3-3s3 1.35 3 3z"/><path d="m24 28c-2.76 0-5 2.24-5 5v2c0 .55.45 1 1 1h8c.55 0 1-.45 1-1v-2c0-2.76-2.24-5-5-5zm3 6h-6v-1c0-1.65 1.35-3 3-3s3 1.35 3 3z"/><path d="m36 28c-2.76 0-5 2.24-5 5v2c0 .55.45 1 1 1h8c.55 0 1-.45 1-1v-2c0-2.76-2.24-5-5-5zm3 6h-6v-1c0-1.65 1.35-3 3-3s3 1.35 3 3z"/><path d="m44 3h-40c-.55 0-1 .45-1 1v20c0 .55.45 1 1 1h40c.55 0 1-.45 1-1v-20c0-.55-.45-1-1-1zm-1 20h-38v-18h38z"/></g></svg>