<svg id="Capa_1" enable-background="new 0 0 512 512" height="512" viewBox="0 0 512 512" width="512" xmlns="http://www.w3.org/2000/svg"><g><g><g><g><path d="m369.93 436.68c-4.116 0-7.892-2.627-9.347-6.468-1.463-3.861-.351-8.323 2.753-11.049 3.188-2.798 7.915-3.262 11.591-1.146 3.66 2.106 5.642 6.474 4.803 10.613-.935 4.613-5.077 8.05-9.8 8.05z"/></g><g><path d="m324.94 436.679h-308.837c-5.522 0-10-4.478-10-10s4.478-10 10-10h308.837c5.522 0 10 4.478 10 10s-4.478 10-10 10z"/></g></g></g><g><g><g><g><g><g><path d="m219.382 196.242c-5.522 0-10-4.478-10-10v-12.528c0-5.522 4.478-10 10-10s10 4.478 10 10v12.528c0 5.523-4.478 10-10 10z"/></g></g><g><g><path d="m292.618 196.242c-5.522 0-10-4.478-10-10v-12.528c0-5.522 4.478-10 10-10s10 4.478 10 10v12.528c0 5.523-4.477 10-10 10z"/></g></g></g><g><path d="m256.018 238.302c-7.929 0-15.322-4.267-19.294-11.134-2.766-4.781-1.131-10.898 3.649-13.663 4.785-2.767 10.898-1.13 13.663 3.649.156.27.759 1.148 1.982 1.148 1.224 0 1.827-.879 1.983-1.148 2.766-4.781 8.884-6.416 13.663-3.647 4.78 2.766 6.414 8.883 3.647 13.663-3.972 6.866-11.366 11.132-19.293 11.132z"/></g></g></g><g><g><path d="m502 377.757h-15.758v-302.12c0-21.636-17.603-39.238-39.238-39.238h-382.008c-21.636 0-39.238 17.603-39.238 39.238v302.12h-15.758c-5.523 0-10 4.478-10 10v47.259c0 22.379 18.207 40.586 40.586 40.586h430.828c22.379 0 40.586-18.207 40.586-40.586v-47.259c0-5.523-4.478-10-10-10zm-35.758-302.12v302.12h-90.77v-60.85c0-20.225-16.454-36.679-36.679-36.679h-24.168c-.11-.367-.24-.73-.393-1.085-1.063-2.461-3.069-4.393-5.569-5.36l-20.973-8.122c6.34-2.845 13.636-6.799 20.522-11.834 19.122-13.979 29.707-31.85 30.776-51.861 4.788-1.043 9.161-3.474 12.656-7.094 4.774-4.946 7.269-11.46 7.025-18.341-.316-8.885-5.218-16.508-12.435-20.714 4.71-11.261 10.375-30.152 10.38-55.888.002-13.038-3.368-26.964-10.017-41.392-.337-.732-.675-1.445-1.01-2.14h101.415c10.61.001 19.24 8.631 19.24 19.24zm-263.132 224.591 13.341 32.839c1.328 3.269 4.279 5.596 7.768 6.124.5.075 1.001.112 1.498.112 2.97 0 5.818-1.324 7.733-3.662l22.55-27.519 22.551 27.519c1.915 2.338 4.764 3.662 7.733 3.662.497 0 .998-.037 1.498-.112 3.488-.528 6.44-2.855 7.768-6.124l13.341-32.839h29.903c9.196 0 16.679 7.482 16.679 16.679v60.85h-198.945v-60.854c0-9.195 7.48-16.676 16.676-16.676h29.906zm55.04-235.885c.378.155.766.288 1.16.397 36.482 10.001 48.956 8.859 66.277-3.566 4.762 8.94 11.03 23.593 11.027 38.753-.004 18.27-3.264 32.435-6.537 42.055l-23.661-34.999c-1.895-2.803-5.026-4.4-8.285-4.4-.97 0-1.951.142-2.915.436-4.198 1.279-7.072 5.148-7.084 9.538-.012 4.203-9.814 7.015-19.492 7.619-8.369.526-53.463-.962-70.131-1.578-.123-.005-.246-.007-.369-.007-6.428 0-11.27 4.624-15.287 11.117-.276-1.66-.543-3.349-.794-5.055-4.687-31.877.098-40.896 1.676-42.902.569-.725 1.052-1.188 2.761-1.136 13.282.447 23.638-5.453 32.771-10.667 12.286-7.016 21.99-12.555 38.883-5.605zm-84.832 112.899c.096-2.708 2.547-4.911 5.464-4.911.179 0 .357-.005.533-.014.069.003.136.011.205.012.067.001.134.002.201.002 4.332 0 8.184-2.795 9.517-6.934 3.486-10.824 8.611-22.502 11.604-26.704 13.336.479 59.205 2.057 69.045 1.441 14.191-.886 23.178-4.43 28.84-8.818l24.754 36.615c1.857 2.748 4.958 4.396 8.275 4.4h.009c.244 0 .486-.012.727-.029.24.017.482.029.727.029 2.917 0 5.368 2.203 5.464 4.91.067 1.898-.865 3.159-1.428 3.741-.563.583-1.789 1.561-3.675 1.561h-3.185c-4.702 0-8.77 3.276-9.771 7.87l-1.316 6.039c-.152.7-.229 1.414-.229 2.13 0 14.765-7.451 27.789-22.147 38.713-11.94 8.876-25.038 13.383-27.591 13.854-2.818.403-5.331 1.988-6.908 4.358-1.578 2.37-2.07 5.3-1.355 8.056l2.743 10.561-7.821 5.766-8.253-6.085 2.66-10.24c.716-2.755.271-5.678-1.307-8.048-1.577-2.369-4.042-3.947-6.86-4.351-6.21-1.151-49.834-17.847-49.834-52.584 0-.716-.077-1.429-.229-2.128l-1.316-6.039c-1.001-4.596-5.067-7.872-9.77-7.872h-2.67c-1.887 0-3.112-.979-3.675-1.561-.562-.582-1.495-1.842-1.428-3.74zm109.273 107.892 9.37 3.628-8.607 21.187-12.964-15.82zm-53.182 0 12.201 8.994-12.964 15.82-8.607-21.187zm-183.651-209.497c0-10.608 8.63-19.238 19.238-19.238h137.43c-5.097 2.61-9.966 4.412-15.24 4.227-7.839-.263-14.448 2.759-19.167 8.756-8.107 10.303-9.987 29.333-5.746 58.179 1.556 10.583 3.637 20.396 5.262 27.324-8.174 3.938-13.863 12.056-14.204 21.648-.243 6.881 2.251 13.394 7.025 18.34 3.367 3.489 7.551 5.872 12.135 6.975 1.038 19.976 11.623 37.862 30.771 51.896 7.001 5.131 14.407 9.146 20.802 12.013l-20.727 8.026c-2.5.968-4.506 2.899-5.569 5.36-.153.355-.283.718-.393 1.085h-24.17c-20.223 0-36.676 16.453-36.676 36.676v60.854h-90.771zm446.242 359.379c0 11.352-9.234 20.586-20.586 20.586h-430.828c-11.351 0-20.586-9.234-20.586-20.586v-37.259h472z"/></g></g></g></g></svg>