<svg id="Layer_1" enable-background="new 0 0 512 512" height="512" viewBox="0 0 512 512" width="512" xmlns="http://www.w3.org/2000/svg"><g><g><circle cx="224" cy="164" fill="#555a6e" r="128"/></g><g><path d="m309.579 148c-4.326 0-8.193-2.676-9.733-6.718-.45-1.18-.933-2.343-1.45-3.489-1.785-3.959-.958-8.604 2.113-11.675l.004-.004c4.07-4.07 4.07-10.668 0-14.738l-7.889-7.889c-2.035-2.035-4.702-3.052-7.369-3.052h-27.335c-1.22-1.721-1.92-3.806-1.92-6.013 0-5.756-4.666-10.422-10.421-10.422h-43.157c-5.756 0-10.422 4.666-10.422 10.422 0 2.207-.7 4.293-1.919 6.013h-27.335c-2.667 0-5.334 1.017-7.369 3.052l-7.889 7.889c-4.07 4.07-4.07 10.668 0 14.738l.004.004c3.071 3.071 3.898 7.716 2.113 11.675-.517 1.145-1 2.309-1.45 3.489-1.541 4.042-5.407 6.718-9.733 6.718-5.755 0-10.421 4.666-10.421 10.422v11.157c0 5.756 4.666 10.422 10.421 10.422 4.325 0 8.192 2.676 9.733 6.718.45 1.18.933 2.343 1.45 3.489 1.785 3.959.958 8.604-2.113 11.675l-.004.004c-4.07 4.07-4.07 10.668 0 14.738l7.889 7.889c2.035 2.035 4.702 3.052 7.369 3.052h27.335c1.219 1.72 1.919 3.806 1.919 6.013 0 5.756 4.666 10.422 10.421 10.422h43.157c5.755 0 10.421-4.666 10.421-10.422 0-2.207.7-4.293 1.919-6.013h27.335c2.667 0 5.334-1.017 7.369-3.052l7.889-7.889c4.07-4.07 4.07-10.668 0-14.738l-.004-.004c-3.071-3.071-3.898-7.716-2.113-11.675.517-1.145 1-2.309 1.45-3.489 1.541-4.042 5.407-6.718 9.733-6.718 5.755 0 10.421-4.666 10.421-10.422v-11.157c.002-5.756-4.664-10.422-10.419-10.422zm-93.502 17.948c-.62-7.867 2.556-15.014 7.891-19.807 4.468 4.002 7.46 9.627 7.955 15.911.62 7.867-2.556 15.014-7.891 19.807-4.468-4.002-7.459-9.627-7.955-15.911z" fill="#faa019"/></g><g><g><path d="m288 169.578v-11.157c0-5.756-4.666-10.422-10.422-10.422-4.326 0-8.193-2.676-9.733-6.718-.45-1.18-.933-2.343-1.45-3.489-1.785-3.959-.958-8.604 2.113-11.675l.004-.004c4.07-4.07 4.07-10.668 0-14.738l-7.889-7.889c-4.07-4.07-10.668-4.07-14.738 0l-.004.004c-3.071 3.071-7.715 3.898-11.674 2.113-1.145-.516-2.309-1-3.489-1.45-4.042-1.54-6.718-5.407-6.718-9.733 0-5.754-4.666-10.42-10.422-10.42h-11.157c-5.755 0-10.421 4.666-10.421 10.422 0 4.326-2.676 8.193-6.718 9.733-1.18.45-2.343.933-3.489 1.45-3.959 1.785-8.604.958-11.674-2.113l-.004-.004c-4.07-4.07-10.668-4.07-14.738 0l-7.889 7.889c-4.07 4.07-4.07 10.668 0 14.738l.004.004c3.071 3.071 3.898 7.716 2.113 11.675-.516 1.145-1 2.309-1.45 3.489-1.54 4.042-5.407 6.718-9.733 6.718-5.756 0-10.422 4.666-10.422 10.422v11.157c0 5.756 4.666 10.422 10.422 10.422 4.326 0 8.193 2.676 9.733 6.718.45 1.18.934 2.343 1.45 3.489 1.785 3.959.958 8.604-2.113 11.675l-.004.004c-4.07 4.07-4.07 10.668 0 14.738l7.889 7.889c4.07 4.07 10.668 4.07 14.738 0l.004-.004c3.071-3.071 7.715-3.898 11.674-2.113 1.145.516 2.309 1 3.489 1.45 4.042 1.54 6.718 5.407 6.718 9.733 0 5.756 4.666 10.422 10.422 10.422h11.157c5.756 0 10.422-4.666 10.422-10.422 0-4.326 2.676-8.193 6.718-9.733 1.18-.45 2.343-.933 3.489-1.45 3.959-1.785 8.604-.958 11.674 2.113l.004.004c4.07 4.07 10.668 4.07 14.738 0l7.889-7.889c4.07-4.07 4.07-10.668 0-14.738l-.004-.004c-3.071-3.071-3.898-7.716-2.113-11.675.516-1.145 1-2.309 1.45-3.489 1.54-4.042 5.407-6.718 9.733-6.718 5.755-.002 10.421-4.668 10.421-10.424zm-56.077-7.526c1.166 14.788-11.082 27.037-25.87 25.871-11.633-.917-21.058-10.342-21.976-21.975-1.166-14.788 11.082-27.037 25.87-25.871 11.634.917 21.059 10.342 21.976 21.975z" fill="#ffcd05"/></g></g><path d="m378.204 164h-10.204c0-79.402-64.598-144-144-144-38.464 0-74.625 14.979-101.823 42.177-3.125 3.124-3.125 8.189 0 11.313 3.124 3.124 8.189 3.124 11.313 0 24.177-24.176 56.32-37.49 90.51-37.49 70.58 0 128 57.42 128 128h-10.204c-3.201 0-5.796 2.595-5.796 5.796 0 1.419.521 2.79 1.464 3.851l18.098 20.36c1.127 1.268 2.742 1.993 4.438 1.993s3.311-.725 4.438-1.993l18.098-20.36c.943-1.061 1.464-2.431 1.464-3.851 0-3.201-2.595-5.796-5.796-5.796z" fill="#faa019"/><path d="m325.823 254.51c-3.124-3.124-8.189-3.124-11.313 0-24.177 24.175-56.32 37.49-90.51 37.49-70.58 0-128-57.42-128-128h10.204c3.201 0 5.796-2.595 5.796-5.796 0-1.419-.521-2.79-1.464-3.851l-18.098-20.36c-1.127-1.267-2.742-1.993-4.438-1.993s-3.311.726-4.438 1.993l-18.098 20.36c-.943 1.061-1.464 2.431-1.464 3.851 0 3.201 2.595 5.796 5.796 5.796h10.204c0 79.402 64.598 144 144 144 38.464 0 74.625-14.979 101.823-42.177 3.125-3.124 3.125-8.189 0-11.313z" fill="#faa019"/><g><path d="m232 212h-112-64c0 54.654 24.912 103.489 64 135.77v120.23c0 8.837 7.163 16 16 16h144c8.837 0 16-7.163 16-16v-192c0-35.346-28.654-64-64-64z" fill="#555a6e"/></g><g><path d="m296 420h-32c-53.019 0-96-42.981-96-96v-48c0-35.346 28.654-64 64-64 35.346 0 64 28.654 64 64z" fill="#463c4b"/></g><g><circle cx="232" cy="276" fill="#faa019" r="64"/></g><g><circle cx="232" cy="276" fill="#ffcd05" r="26.667"/></g><g><path d="m436.8 298.4-28.8-38.4v-48c0-8.837-7.164-16-16-16h-320c-8.836 0-16 7.163-16 16h176c35.346 0 64 28.654 64 64v144c0 26.51 21.49 48 48 48h48c8.836 0 16-7.163 16-16v-80h32c8.836 0 16-7.163 16-16 0-20.772-6.737-40.983-19.2-57.6z" fill="#d7e6f0"/></g><g><path d="m344 276h32v-32c-17.673 0-32 14.327-32 32z" fill="#555a6e"/></g><g><path d="m392 404h16v16h-32c0-8.837 7.163-16 16-16z" fill="#a5c3dc"/></g></g></svg>