<svg id="Layer_1" enable-background="new 0 0 64 64" height="512" viewBox="0 0 64 64" width="512" xmlns="http://www.w3.org/2000/svg"><g><path d="m18 21h28c.6 0 1-.4 1-1s-.4-1-1-1h-28c-.6 0-1 .4-1 1s.4 1 1 1z"/><path d="m18 29h28c.6 0 1-.4 1-1s-.4-1-1-1h-28c-.6 0-1 .4-1 1s.4 1 1 1z"/><path d="m18 37h28c.6 0 1-.4 1-1s-.4-1-1-1h-28c-.6 0-1 .4-1 1s.4 1 1 1z"/><path d="m18 45h22c.6 0 1-.4 1-1s-.4-1-1-1h-22c-.6 0-1 .4-1 1s.4 1 1 1z"/><path d="m52 3h-11v-1c0-.6-.4-1-1-1s-1 .4-1 1v1h-6v-1c0-.6-.4-1-1-1s-1 .4-1 1v1h-6v-1c0-.6-.4-1-1-1s-1 .4-1 1v1h-10.9c-1.7 0-3.1 1.4-3.1 3.1v47.9c0 .6.4 1 1 1s1-.4 1-1v-47.9c0-.6.5-1.1 1.1-1.1h10.9v2h-9c-.6 0-1 .4-1 1v21.6c0 .6.4 1 1 1s1-.4 1-1v-20.6h8v2.2c-1.2.4-2 1.5-2 2.8 0 1.7 1.3 3 3 3s3-1.3 3-3c0-1.3-.8-2.4-2-2.8v-2.2h6v2.2c-1.2.4-2 1.5-2 2.8 0 1.7 1.3 3 3 3s3-1.3 3-3c0-1.3-.8-2.4-2-2.8v-2.2h6v2.2c-1.2.4-2 1.5-2 2.8 0 1.7 1.3 3 3 3s3-1.3 3-3c0-1.3-.8-2.4-2-2.8v-2.2h8v41.9c-2.3-.5-4-2.5-4-4.9 0-.4-.2-.8-.6-.9-.4-.2-.8-.1-1.1.2l-11.7 11.7h-16.6v-24c0-.6-.4-1-1-1s-1 .4-1 1v25c0 .6.4 1 1 1h36c.6 0 1-.4 1-1v-50c0-.6-.4-1-1-1h-9v-2h11c.6 0 1 .5 1 1.1v8.8c0 .6.4 1 1 1s1-.4 1-1v-8.8c0-1.7-1.3-3.1-3-3.1zm-28 12c-.6 0-1-.4-1-1s.4-1 1-1 1 .4 1 1-.4 1-1 1zm1-8v-2h6v2zm7 8c-.6 0-1-.4-1-1s.4-1 1-1 1 .4 1 1-.4 1-1 1zm1-8v-2h6v2zm7 8c-.6 0-1-.4-1-1s.4-1 1-1 1 .4 1 1-.4 1-1 1zm3.3 33.1c.5 1.7 1.7 3.1 3.2 4l-10.9 3.6zm5.7 8.9h-10.8l10.8-3.6z"/><path d="m46 61h-33.9c-.5 0-1.1-.4-1.1-1.1v-1.9c0-.6-.4-1-1-1s-1 .4-1 1v1.9c0 1.7 1.4 3.1 3.1 3.1h33.9c.6 0 1-.4 1-1s-.4-1-1-1z"/><path d="m54 25.9c-.6 0-1 .4-1 1v33.1c0 .6-.5 1-1.1 1h-1.4c-.6 0-1 .4-1 1s.4 1 1 1h1.4c1.7 0 3.1-1.3 3.1-3v-33.1c0-.5-.4-1-1-1z"/><path d="m54 18c-.6 0-1 .4-1 1v2.7c0 .6.4 1 1 1s1-.4 1-1v-2.7c0-.5-.4-1-1-1z"/><path d="m28 53c-.6 0-1 .4-1 1s.4 1 1 1h2c.6 0 1-.4 1-1s-.4-1-1-1z"/><path d="m17 52.9c0 1.2 1 2.1 2.1 2.1h4.9c.6 0 1-.4 1-1s-.4-1-1-1h-4.9c-.1 0-.1-.1-.1-.1v-2.9c0-.6-.4-1-1-1s-1 .4-1 1z"/></g></svg>