<svg id="Layer_1" enable-background="new 0 0 512 512" height="512" viewBox="0 0 512 512" width="512" xmlns="http://www.w3.org/2000/svg"><g><path d="m322.8 265.9c7.7-12.8 21.2-20.4 36.1-20.4s28.4 7.6 36.1 20.4l8 13.1v-134.6h-372.8v39.9h57.4c7.8 0 14.1 6.3 14.1 14.1s-6.3 14.1-14.1 14.1h-57.4v28.2h15.1c7.8 0 14.1 6.3 14.1 14.1s-6.3 14.1-14.1 14.1h-15.1v120.6c0 7.8 6.3 14.1 14.1 14.1h195.3z" fill="#fff"/><path d="m58.3 172.5v202.8h189.1l11.7-4.2 63.7-105.2c7.7-12.8 21.2-20.4 36.1-20.4 5.6 0 10.9 1.1 15.9 3.1v-76.1z" fill="#ffc10d"/><path d="m403 44.7c0-7.8-6.3-14.1-14.1-14.1h-344.6c-7.8 0-14.1 6.3-14.1 14.1v71.5h372.8z" fill="#56ace0"/><path d="m359 410.4c-7.8 0-14.1-6.3-14.1-14.1v-73.4c0-7.8 6.3-14.1 14.1-14.1s14.1 6.3 14.1 14.1v73.4c0 7.8-6.4 14.1-14.1 14.1z" fill="#194f82"/><path d="m359 462.7c-7.8 0-14.1-6.3-14.1-14.1v-13.1c0-7.8 6.3-14.1 14.1-14.1s14.1 6.3 14.1 14.1v13.1c0 7.8-6.4 14.1-14.1 14.1z" fill="#194f82"/><path d="m359 308.8c-7.8 0-14.1 6.3-14.1 14.1v73.4c0 7.8 6.3 14.1 14.1 14.1s14.1-6.3 14.1-14.1v-73.4c0-7.8-6.4-14.1-14.1-14.1z"/><path d="m359 421.5c-7.8 0-14.1 6.3-14.1 14.1v13.1c0 7.8 6.3 14.1 14.1 14.1s14.1-6.3 14.1-14.1v-13.1c0-7.8-6.4-14.1-14.1-14.1z"/><path d="m371 280.5c-3.7-6.1-9.7-6.8-12-6.8-2.4 0-8.3.7-12 6.8l-108.8 179.5c-3.8 6.4-1.4 12.1-.2 14.2 1.2 2.2 4.8 7.2 12.3 7.2h217.4c7.4 0 11.1-5 12.3-7.2s3.6-7.9-.2-14.2z" fill="#56ace0"/><g fill="#194f82"><path d="m503.8 445.4-72.6-119.9v-280.8c0-23.3-19-42.3-42.3-42.3h-344.6c-23.3.1-42.3 19-42.3 42.3v344.7c0 23.3 19 42.3 42.3 42.3h178.2l-8.3 13.7c-8 13.2-8.3 29.2-.7 42.6 7.6 13.5 21.4 21.5 36.8 21.5h217.4c15.5 0 29.2-8 36.8-21.5s7.3-29.4-.7-42.6zm-473.6-400.7c0-7.8 6.3-14.1 14.1-14.1h344.7c7.8 0 14.1 6.3 14.1 14.1v71.5h-372.9zm14.1 358.8c-7.8 0-14.1-6.3-14.1-14.1v-120.6h15.1c7.8 0 14.1-6.3 14.1-14.1s-6.3-14.1-14.1-14.1h-15.1v-28.2h57.4c7.8 0 14.1-6.3 14.1-14.1s-6.3-14.1-14.1-14.1h-57.4v-39.9h372.8v134.7l-7.9-13.1c-7.7-12.8-21.2-20.4-36.1-20.4s-28.4 7.6-36.1 20.4l-83.3 137.5h-195.3zm435.6 70.7c-1.2 2.2-4.8 7.2-12.3 7.2h-217.3c-7.4 0-11.1-5-12.3-7.2s-3.6-7.9.2-14.2l108.7-179.4c3.7-6.1 9.7-6.8 12-6.8 2.4 0 8.3.7 12 6.8l108.8 179.4c3.9 6.3 1.5 12 .2 14.2z"/><path d="m359 308.8c-7.8 0-14.1 6.3-14.1 14.1v73.4c0 7.8 6.3 14.1 14.1 14.1s14.1-6.3 14.1-14.1v-73.4c0-7.8-6.4-14.1-14.1-14.1z"/><path d="m359 421.5c-7.8 0-14.1 6.3-14.1 14.1v13.1c0 7.8 6.3 14.1 14.1 14.1s14.1-6.3 14.1-14.1v-13.1c0-7.8-6.4-14.1-14.1-14.1z"/><path d="m373.3 46.6c-5.5-5.5-14.4-5.5-19.9 0l-6.7 6.7-6.7-6.7c-5.5-5.5-14.4-5.5-19.9 0s-5.5 14.4 0 19.9l6.7 6.7-6.7 6.7c-5.5 5.5-5.5 14.4 0 19.9s14.4 5.5 19.9 0l6.7-6.7 6.7 6.7c5.5 5.5 14.4 5.5 19.9 0s5.5-14.4 0-19.9l-6.7-6.7 6.7-6.7c5.5-5.4 5.5-14.4 0-19.9z"/><path d="m271.2 59.2h-33c-7.8 0-14.1 6.3-14.1 14.1s6.3 14.1 14.1 14.1h33c7.8 0 14.1-6.3 14.1-14.1s-6.3-14.1-14.1-14.1z"/></g></g></svg>