<svg id="Capa_1" enable-background="new 0 0 512 512" height="512" viewBox="0 0 512 512" width="512" xmlns="http://www.w3.org/2000/svg"><g><path d="m480.082 224.082c0-124.298-101.204-224.959-225.706-224.076-123.368.874-223.507 102.67-222.45 226.037.87 101.552 69.298 186.974 162.53 213.548 8.433 2.404 15.64 7.914 20.02 15.51l28.455 49.349c5.805 10.067 20.333 10.067 26.138 0l28.455-49.35c4.378-7.593 11.58-13.104 20.009-15.506 93.836-26.741 162.549-113.096 162.549-215.512z" fill="#d82e3d"/><path d="m254.376.006c-7.498.053-14.908.486-22.217 1.267 112.539 11.912 200.227 107.112 200.227 222.81 0 102.416-68.713 188.77-162.549 215.511-8.429 2.402-15.631 7.913-20.009 15.506l-17.676 30.656 10.779 18.694c5.805 10.067 20.334 10.067 26.138 0l28.455-49.35c4.378-7.593 11.58-13.104 20.009-15.506 93.836-26.741 162.549-113.095 162.549-215.511 0-124.299-101.204-224.959-225.706-224.077z" fill="#b93333"/><path d="m262.478 349.171h-12.956c-8.41 0-15.227-6.818-15.227-15.228v-10.436c0-8.41 6.818-15.227 15.227-15.227h12.956c8.41 0 15.227 6.818 15.227 15.227v10.436c0 8.411-6.817 15.228-15.227 15.228z" fill="#f1f1f4"/><path d="m262.478 308.28h-12.956c-.495 0-.982.028-1.465.074 7.722.737 13.763 7.238 13.763 15.154v10.436c0 7.915-6.041 14.416-13.763 15.153.482.046.97.074 1.465.074h12.956c8.41 0 15.227-6.818 15.227-15.228v-10.436c0-8.409-6.817-15.227-15.227-15.227z" fill="#e2dfe2"/><g><path d="m255.999 280.334c-11.015 0-19.945-8.93-19.945-19.945v-43.712c0-11.015 8.93-19.945 19.945-19.945 17.907 0 32.474-14.568 32.474-32.473 0-17.907-14.568-32.474-32.474-32.474s-32.473 14.568-32.473 32.474c0 11.015-8.93 19.945-19.945 19.945s-19.945-8.93-19.945-19.945c0-39.902 32.462-72.365 72.364-72.365s72.365 32.463 72.365 72.365c0 32.478-21.505 60.027-51.026 69.154-.828.256-1.393 1.022-1.393 1.888v25.089c-.001 11.014-8.931 19.944-19.947 19.944z" fill="#f1f1f4"/></g><g fill="#e2dfe2"><path d="m255.999 131.784c2.787 0 5.493.354 8.076 1.017-5.939-6.459-14.453-10.515-23.899-10.515-17.906 0-32.473 14.568-32.473 32.474 0 11.015-8.93 19.945-19.945 19.945-.398 0-.787-.037-1.18-.06 3.505 5.725 9.799 9.557 17.003 9.557 11.015 0 19.945-8.93 19.945-19.945 0-17.905 14.568-32.473 32.473-32.473z"/><path d="m284.897 97.932c16.817 13.263 27.644 33.798 27.644 56.828 0 30.037-18.394 55.858-44.511 66.789-4.805 2.011-7.908 6.738-7.908 11.947v17.394c0 11.015-8.93 19.945-19.945 19.945-.398 0-.787-.037-1.18-.059 3.471 5.668 9.675 9.482 16.791 9.556 11.087.116 20.157-9.345 20.157-20.432v-24.6c0-.867.565-1.632 1.393-1.888 29.521-9.126 51.026-36.676 51.026-69.154 0-29.631-17.91-55.147-43.467-66.326z"/></g></g></svg>