<svg id="Capa_1" enable-background="new 0 0 512 512" height="512" viewBox="0 0 512 512" width="512" xmlns="http://www.w3.org/2000/svg"><g><path d="m91 346c0 91.533 74.019 166 165 166s165-74.467 165-166v-60c0-24.813-20.187-45-45-45-5.857 0-11.449 1.136-16.586 3.181-5.205-19.096-22.691-33.181-43.414-33.181-5.857 0-11.449 1.136-16.586 3.181-5.205-19.096-22.691-33.181-43.414-33.181-5.258 0-10.305.915-15 2.58v-78.58c0-24.813-20.187-45-45-45s-45 20.187-45 45v108.58c-4.695-1.665-9.742-2.58-15-2.58-24.813 0-45 20.187-45 45zm30-90c0-8.271 6.729-15 15-15s15 6.729 15 15v105h30c0-34.656 0-247.58 0-256 0-8.271 6.729-15 15-15s15 6.729 15 15v196h30v-75c0-8.271 6.729-15 15-15s15 6.729 15 15v75h30v-45c0-8.271 6.729-15 15-15s15 6.729 15 15v45h30v-15c0-8.271 6.729-15 15-15s15 6.729 15 15v60c0 74.991-60.561 136-135 136s-135-61.009-135-136z"/><path d="m196 30c41.355 0 75 33.645 75 75h30c0-57.897-47.103-105-105-105s-105 47.103-105 105h30c0-41.355 33.645-75 75-75z"/></g></svg>