<svg id="Layer_1" enable-background="new 0 0 512 512" height="512" viewBox="0 0 512 512" width="512" xmlns="http://www.w3.org/2000/svg" xmlns:xlink="http://www.w3.org/1999/xlink"><linearGradient id="SVGID_1_" gradientUnits="userSpaceOnUse" x1="256.002" x2="256.002" y1=".002" y2="512.001"><stop offset="0" stop-color="#01f1fe"/><stop offset="1" stop-color="#4fadfe"/></linearGradient><path d="m343.678 218.61h-65.227v-58.108h65.227v10.892 36.324zm37.824-44.814-13.824 5.654v20.211l13.824 5.655zm-3.615 149.556-47.028-27.152c-1.65-.952-3.583-1.201-5.448-.703-1.863.499-3.414 1.683-4.366 3.332-6.89 11.936-17.204 19.843-29.042 22.264-12.62 2.579-24.734-.142-35.034-7.872-19.57-14.686-43.498-38.612-58.187-58.186-7.73-10.3-10.452-22.415-7.872-35.033 2.421-11.837 10.327-22.151 22.263-29.042 3.431-1.981 4.61-6.383 2.63-9.813l-27.152-47.029c-1.337-2.316-3.656-3.618-6.135-3.618-.896 0-1.812.17-2.711.523l-.561.22c-10.843 4.257-33.406 13.114-37.518 17.032-11.444 11.444-14.168 28.763-8.085 51.465 18.344 68.463 110.16 160.278 178.623 178.623 22.701 6.082 40.021 3.359 51.477-8.097 3.903-4.097 12.755-26.642 17.009-37.476l.232-.591c1.331-3.389.058-7.027-3.095-8.847zm134.114-67.349c0 141.158-114.842 255.998-256.002 255.998-141.157 0-255.997-114.84-255.997-255.998 0-141.16 114.84-256.002 255.998-256.002 141.16 0 256.001 114.842 256.001 256.002zm-257.55-33.475c0 11.073 8.655 20.082 19.294 20.082h74.638c9.667 0 17.697-7.438 19.083-17.104l21.493 8.792c3.699 1.513 7.912 1.084 11.232-1.144 3.319-2.229 5.311-5.964 5.311-9.963v-67.268c0-3.999-1.991-7.734-5.311-9.963-3.319-2.228-7.531-2.657-11.232-1.144l-21.493 8.792c-1.386-9.667-9.415-17.105-19.083-17.105h-74.638c-10.639 0-19.294 9.008-19.294 20.082zm135.437 80.038c-.001 0-.001 0 0 0l-47.029-27.152c-7.201-4.158-15.604-5.258-23.659-3.101-8.056 2.158-14.782 7.313-18.94 14.516-2.412 4.178-6.637 9.435-13.064 10.749-5.862 1.198-11.037.036-15.821-3.554-17.674-13.264-40.13-35.72-53.396-53.396-3.59-4.784-4.753-9.959-3.554-15.82 1.314-6.428 6.571-10.654 10.75-13.066 7.201-4.158 12.356-10.884 14.515-18.939 2.158-8.055 1.057-16.458-3.101-23.659l-27.152-47.028c-7.776-13.469-23.927-19.122-38.402-13.436l-.561.22c-22.475 8.823-38.91 15.594-45.706 22.391-12.345 12.345-24.849 35.319-14.309 74.659 20.474 76.409 119.185 175.12 195.594 195.593 10.375 2.78 19.611 3.957 27.815 3.957 22.902 0 37.755-9.175 46.844-18.265 6.793-6.793 13.56-23.216 22.378-45.675l.232-.592c5.683-14.475.033-30.625-13.434-38.402z" fill="url(#SVGID_1_)"/></svg>