<?xml version="1.0" encoding="iso-8859-1"?>
<!-- Generator: Adobe Illustrator 19.0.0, SVG Export Plug-In . SVG Version: 6.00 Build 0)  -->
<svg version="1.1" id="Capa_1" xmlns="http://www.w3.org/2000/svg" xmlns:xlink="http://www.w3.org/1999/xlink" x="0px" y="0px"
	 viewBox="0 0 370.4 370.4" style="enable-background:new 0 0 370.4 370.4;" xml:space="preserve">
<path style="fill:#C5F3FF;" d="M208.4,126.122H154c-8.4-12.4-22.8-20.4-38.8-20.4s-30.4,8-38.8,20.4H6v53.6h70.4
	c8.4,12.4,22.8,20.4,38.8,20.4s30.4-8,38.8-20.4h51.2L208.4,126.122z"/>
<g>
	<path style="fill:#50B8C9;" d="M364.4,154.922v82.4h-81.2c-144.4,0-136.4-164.8,0-164.8h81.2V154.922z"/>
	<circle style="fill:#50B8C9;" cx="115.6" cy="152.922" r="20.4"/>
</g>
<g>
	<path style="fill:#000A3A;" d="M364.4,243.722c3.6,0,6-2.8,6-6v-165.2c0-3.6-2.8-6-6-6h-78c-9.6-12.8-53.2-61.6-145.2-48.4
		c-10.4,1.6-20.4,4-30,7.2c-9.2,3.2-17.6,6.8-25.6,11.6c-46.4,26-61.6,68.8-66,83.6H6c-3.6,0-6,2.8-6,6v53.6c0,3.6,2.8,6,6,6h12.8
		c3.2,22.4,23.2,46.8,29.2,54v98.8c0,3.6,2.8,6,6,6c3.6,0,6-2.8,6-6v-101.6c0-1.6-0.4-3.2-1.6-4c-7.2-7.6-24-29.6-27.6-47.2h42
		c10,12.8,25.6,20.4,42,20.4s31.6-7.6,42-20.4h20c4.8,11.6,12.4,22.4,22.4,31.2c20,17.2,48.8,26.4,83.2,26.4h10.4c0,0.8,0,2,0.4,2.8
		l6.4,13.6H282c-3.6,0-6,2.8-6,6c0,3.6,2.8,6,6,6h15.2l-17.6,24.8c-0.8,1.2-1.2,2.8-1.2,4.4c0.8,6.8,1.6,26.4-6.4,35.6
		c-3.2,3.6-7.2,5.2-12.4,5.2c-3.6,0-92-0.8-92-66.4c0-3.6-2.8-6-6-6c-3.6,0-6,2.8-6,6c0,62,65.6,78.8,104.4,78.8
		c9.2,0,16.4-3.2,21.6-9.6c11.2-12.8,10-35.2,9.2-42.8l23.2-32.8l0,0l0,0c0.4-0.4,0.4-1.2,0.8-1.6v-0.4c0-0.8,0-1.2,0-2
		c0,0,0,0,0-0.4s-0.4-1.2-0.4-1.6l-9.6-19.6L364.4,243.722L364.4,243.722z M358,231.322h-20.4v-152.4H358V231.322z M270.4,66.922
		c-45.6,3.6-76,25.6-90,53.2h-23.2c-2.8-3.2-5.6-6.4-8.8-8.8v-81.6C217.6,21.322,255.6,51.322,270.4,66.922z M115.2,36.922
		c6.4-2,13.6-4,20.8-5.2v72c-6.4-2.8-13.6-4.4-20.4-4.4c-7.2,0-14,1.6-20.4,4.4v-58C101.2,42.522,108,39.322,115.2,36.922z
		 M82.4,53.322v58c-3.2,2.4-6.4,5.6-8.8,8.8H32.8C37.2,106.122,50.4,74.922,82.4,53.322z M154,173.722c-2,0-4,0.8-5.2,2.8
		c-7.6,11.2-20.4,17.6-33.6,17.6c-13.6,0-26-6.8-33.6-17.6c-1.2-1.6-3.2-2.8-5.2-2.8h-64v-41.2h64.4c2,0,4-0.8,5.2-2.8
		c7.6-11.2,20.4-17.6,33.6-17.6c13.6,0,26,6.8,33.6,17.6c1.2,1.6,3.2,2.8,5.2,2.8H176c-2.4,8-4,16-4,24.4c0,5.6,0.8,11.2,2,16.8H154
		z M208,207.722c-15.2-13.2-24-31.2-24-50.8c0-38.8,34-78,99.2-78h42v152.4h-42C252,231.322,225.6,222.922,208,207.722z"/>
	<path style="fill:#000A3A;" d="M115.6,126.522c-14.8,0-26.4,12-26.4,26.8s12,26.8,26.4,26.8s26.8-12,26.8-26.8
		S130,126.522,115.6,126.522z M115.6,167.322c-8,0-14.4-6.4-14.4-14.4s6.4-14.4,14.4-14.4s14.4,6.4,14.4,14.4
		C129.6,160.922,123.2,167.322,115.6,167.322z"/>
</g>
<g>
</g>
<g>
</g>
<g>
</g>
<g>
</g>
<g>
</g>
<g>
</g>
<g>
</g>
<g>
</g>
<g>
</g>
<g>
</g>
<g>
</g>
<g>
</g>
<g>
</g>
<g>
</g>
<g>
</g>
</svg>
