<?xml version="1.0" encoding="iso-8859-1"?>
<!-- Generator: Adobe Illustrator 19.0.0, SVG Export Plug-In . SVG Version: 6.00 Build 0)  -->
<svg version="1.1" id="Capa_1" xmlns="http://www.w3.org/2000/svg" xmlns:xlink="http://www.w3.org/1999/xlink" x="0px" y="0px"
	 viewBox="0 0 512 512" style="enable-background:new 0 0 512 512;" xml:space="preserve">
<g>
	<g>
		<path d="M136,226c-30.327,0-55,24.673-55,55c0,30.327,24.673,55,55,55c30.327,0,55-24.673,55-55C191,250.673,166.327,226,136,226z
			 M136,306c-13.785,0-25-11.215-25-25c0-13.785,11.215-25,25-25c13.785,0,25,11.215,25,25C161,294.785,149.785,306,136,306z"/>
	</g>
</g>
<g>
	<g>
		<path d="M376,226c-30.327,0-55,24.673-55,55c0,30.327,24.673,55,55,55c30.327,0,55-24.673,55-55C431,250.673,406.327,226,376,226z
			 M376,306c-13.785,0-25-11.215-25-25c0-13.785,11.215-25,25-25c13.785,0,25,11.215,25,25C401,294.785,389.785,306,376,306z"/>
	</g>
</g>
<g>
	<g>
		<path d="M476.271,91H35.729L0,162.459V421h149.726c20.034,0,38.868-7.802,53.033-21.967l21.421-21.421
			c17.546-17.546,46.093-17.546,63.641,0l21.421,21.421C323.406,413.198,342.24,421,362.274,421H512V162.459L476.271,91z
			 M54.271,121h403.458l15,30H39.271L54.271,121z M482,391H362.274c-12.021,0-23.321-4.681-31.82-13.18l-21.421-21.422
			c-14.166-14.166-33-21.967-53.033-21.967s-38.867,7.802-53.033,21.967l-21.421,21.421c-8.499,8.499-19.8,13.18-31.82,13.18H30V181
			h452V391z"/>
	</g>
</g>
<g>
</g>
<g>
</g>
<g>
</g>
<g>
</g>
<g>
</g>
<g>
</g>
<g>
</g>
<g>
</g>
<g>
</g>
<g>
</g>
<g>
</g>
<g>
</g>
<g>
</g>
<g>
</g>
<g>
</g>
</svg>
