<svg height="512" viewBox="0 0 64 64" width="512" xmlns="http://www.w3.org/2000/svg"><g id="Back"><path d="m-356-20h524v944h-524z" fill="#fff"/></g><g id="Flat"><path d="m60 35v-3l-4.961-11.576a4 4 0 0 0 -3.677-2.424h-12.362v27a1 1 0 0 0 1 1h18a2 2 0 0 0 2-2v-5l-1-2z" fill="#f0f7fa"/><path d="m42 18h-3v27a1 1 0 0 0 1 1h2z" fill="#ddecf3"/><path d="m40 46h18a2 2 0 0 0 2-2v-5l-1-2 1-2v-3l-4.961-11.576a3.951 3.951 0 0 0 -.22-.424h-15.819v25a1 1 0 0 0 1 1z" fill="#ddecf3"/><path d="m39 20v25a1 1 0 0 0 1 1h2v-26z" fill="#c3e0ed"/><path d="m5 12h34a1 1 0 0 1 1 1v27a2 2 0 0 1 -2 2h-32a2 2 0 0 1 -2-2v-27a1 1 0 0 1 1-1z" fill="#ffe789" transform="matrix(-1 0 0 -1 44 54)"/><path d="m6 16v26h33a1 1 0 0 0 1-1v-27h-32a2 2 0 0 0 -2 2z" fill="#ffdd5a"/><path d="m4 41h36a0 0 0 0 1 0 0v5a0 0 0 0 1 0 0h-34a2 2 0 0 1 -2-2v-3a0 0 0 0 1 0 0z" fill="#f0f7fa"/><path d="m6 41v3a2 2 0 0 0 2 2h32v-5z" fill="#ddecf3"/><circle cx="22" cy="26" fill="#f0f7fa" r="10"/><circle cx="50" cy="46" fill="#466ba6" r="6"/><circle cx="50" cy="46" fill="#ddecf3" r="2"/><circle cx="14" cy="46" fill="#466ba6" r="6"/><circle cx="14" cy="46" fill="#ddecf3" r="2"/><path d="m51.362 22h-7.362v10h11.648z" fill="#97f2ef"/><path d="m46 24v8h9.648l-3.429-8z" fill="#b3ffff"/><path d="m22 37a11 11 0 1 1 11-11 11.013 11.013 0 0 1 -11 11zm0-20a9 9 0 1 0 9 9 9.01 9.01 0 0 0 -9-9z" fill="#e6634f"/><path d="m26 28a4 4 0 0 1 -8 0c0-2.209 4-8 4-8s4 5.791 4 8z" fill="#97f2ef"/><path d="m58 35h2a0 0 0 0 1 0 0v4a0 0 0 0 1 0 0h-2a2 2 0 0 1 -2-2 2 2 0 0 1 2-2z" fill="#e6634f"/></g></svg>